<?xml version="1.0" encoding="UTF-8" standalone="no"?>
<svg
   xmlns:dc="http://purl.org/dc/elements/1.1/"
   xmlns:cc="http://creativecommons.org/ns#"
   xmlns:rdf="http://www.w3.org/1999/02/22-rdf-syntax-ns#"
   xmlns:svg="http://www.w3.org/2000/svg"
   xmlns="http://www.w3.org/2000/svg"
   xmlns:sodipodi="http://sodipodi.sourceforge.net/DTD/sodipodi-0.dtd"
   xmlns:inkscape="http://www.inkscape.org/namespaces/inkscape"
   fill-opacity="0"
   color-rendering="auto"
   color-interpolation="auto"
   stroke="rgb(0,0,0)"
   text-rendering="auto"
   stroke-linecap="square"
   width="984"
   stroke-miterlimit="10"
   stroke-opacity="0"
   shape-rendering="auto"
   fill="rgb(0,0,0)"
   stroke-dasharray="none"
   font-weight="normal"
   stroke-width="1"
   height="634"
   font-family="'Dialog'"
   font-style="normal"
   stroke-linejoin="miter"
   font-size="12"
   stroke-dashoffset="0"
   image-rendering="auto"
   id="svg2"
   version="1.1"
   inkscape:version="0.47 r22583"
   sodipodi:docname="Applikation.svg"
   inkscape:export-filename="D:\pmp-android\documentation\pmp\manual\class diagrams\Applikation.png"
   inkscape:export-xdpi="100"
   inkscape:export-ydpi="100">
  <metadata
     id="metadata594">
    <rdf:RDF>
      <cc:Work
         rdf:about="">
        <dc:format>image/svg+xml</dc:format>
        <dc:type
           rdf:resource="http://purl.org/dc/dcmitype/StillImage" />
        <dc:title></dc:title>
      </cc:Work>
    </rdf:RDF>
  </metadata>
  <sodipodi:namedview
     pagecolor="#ffffff"
     bordercolor="#666666"
     borderopacity="1"
     objecttolerance="10"
     gridtolerance="10"
     guidetolerance="10"
     inkscape:pageopacity="0"
     inkscape:pageshadow="2"
     inkscape:window-width="1680"
     inkscape:window-height="994"
     id="namedview592"
     showgrid="false"
     inkscape:zoom="0.74447949"
     inkscape:cx="252.90678"
     inkscape:cy="906.50297"
     inkscape:window-x="-4"
     inkscape:window-y="-4"
     inkscape:window-maximized="1"
     inkscape:current-layer="g5" />
  <!--Generated by the Batik Graphics2D SVG Generator-->
  <defs
     id="genericDefs">
    <inkscape:perspective
       sodipodi:type="inkscape:persp3d"
       inkscape:vp_x="0 : 317 : 1"
       inkscape:vp_y="0 : 1000 : 0"
       inkscape:vp_z="984 : 317 : 1"
       inkscape:persp3d-origin="492 : 211.33333 : 1"
       id="perspective596" />
    <inkscape:perspective
       id="perspective3410"
       inkscape:persp3d-origin="0.5 : 0.33333333 : 1"
       inkscape:vp_z="1 : 0.5 : 1"
       inkscape:vp_y="0 : 1000 : 0"
       inkscape:vp_x="0 : 0.5 : 1"
       sodipodi:type="inkscape:persp3d" />
  </defs>
  <g
     id="g5">
    <defs
       id="defs1">
      <clipPath
         clipPathUnits="userSpaceOnUse"
         id="clipPath1">
        <path
           d="M-7 -7 L761 -7 L761 641 L-7 641 L-7 -7 Z"
           id="path9" />
      </clipPath>
      <clipPath
         clipPathUnits="userSpaceOnUse"
         id="clipPath2">
        <path
           d="M0 0 L750 0 L750 15 L0 15 L0 0 Z"
           id="path12" />
      </clipPath>
      <clipPath
         clipPathUnits="userSpaceOnUse"
         id="clipPath3">
        <path
           d="M-7 -7 L191 -7 L191 231 L-7 231 L-7 -7 Z"
           id="path15" />
      </clipPath>
      <clipPath
         clipPathUnits="userSpaceOnUse"
         id="clipPath4">
        <path
           d="M0 0 L180 0 L180 15 L0 15 L0 0 Z"
           id="path18" />
      </clipPath>
      <clipPath
         clipPathUnits="userSpaceOnUse"
         id="clipPath5">
        <path
           d="M-7 -7 L741 -7 L741 461 L-7 461 L-7 -7 Z"
           id="path21" />
      </clipPath>
      <clipPath
         clipPathUnits="userSpaceOnUse"
         id="clipPath6">
        <path
           d="M0 0 L0 431 L730 431 L730 0 Z"
           id="path24" />
      </clipPath>
      <clipPath
         clipPathUnits="userSpaceOnUse"
         id="clipPath7">
        <path
           d="M0 0 L730 0 L730 30 L0 30 L0 0 Z"
           id="path27" />
      </clipPath>
      <clipPath
         clipPathUnits="userSpaceOnUse"
         id="clipPath8">
        <path
           d="M-7 -7 L199 -7 L199 64 L-7 64 L-7 -7 Z"
           id="path30" />
      </clipPath>
      <clipPath
         clipPathUnits="userSpaceOnUse"
         id="clipPath9">
        <path
           d="M0 0 L0 49 L188 49 L188 0 Z"
           id="path33" />
      </clipPath>
      <clipPath
         clipPathUnits="userSpaceOnUse"
         id="clipPath10">
        <path
           d="M0 0 L188 0 L188 15 L0 15 L0 0 Z"
           id="path36" />
      </clipPath>
      <clipPath
         clipPathUnits="userSpaceOnUse"
         id="clipPath11">
        <path
           d="M-7 -7 L422 -7 L422 79 L-7 79 L-7 -7 Z"
           id="path39" />
      </clipPath>
      <clipPath
         clipPathUnits="userSpaceOnUse"
         id="clipPath12">
        <path
           d="M0 0 L0 64 L411 64 L411 0 Z"
           id="path42" />
      </clipPath>
      <clipPath
         clipPathUnits="userSpaceOnUse"
         id="clipPath13">
        <path
           d="M0 0 L411 0 L411 15 L0 15 L0 0 Z"
           id="path45" />
      </clipPath>
      <clipPath
         clipPathUnits="userSpaceOnUse"
         id="clipPath14">
        <path
           d="M-7 -7 L161 -7 L161 81 L-7 81 L-7 -7 Z"
           id="path48" />
      </clipPath>
      <clipPath
         clipPathUnits="userSpaceOnUse"
         id="clipPath15">
        <path
           d="M0 0 L0 66 L150 66 L150 0 Z"
           id="path51" />
      </clipPath>
      <clipPath
         clipPathUnits="userSpaceOnUse"
         id="clipPath16">
        <path
           d="M0 0 L150 0 L150 15 L0 15 L0 0 Z"
           id="path54" />
      </clipPath>
      <clipPath
         clipPathUnits="userSpaceOnUse"
         id="clipPath17">
        <path
           d="M-7 -7 L191 -7 L191 51 L-7 51 L-7 -7 Z"
           id="path57" />
      </clipPath>
      <clipPath
         clipPathUnits="userSpaceOnUse"
         id="clipPath18">
        <path
           d="M0 0 L0 36 L180 36 L180 0 Z"
           id="path60" />
      </clipPath>
      <clipPath
         clipPathUnits="userSpaceOnUse"
         id="clipPath19">
        <path
           d="M-7 -7 L131 -7 L131 51 L-7 51 L-7 -7 Z"
           id="path63" />
      </clipPath>
      <clipPath
         clipPathUnits="userSpaceOnUse"
         id="clipPath20">
        <path
           d="M0 0 L0 40 L105 40 L105 0 Z"
           id="path66" />
      </clipPath>
      <clipPath
         clipPathUnits="userSpaceOnUse"
         id="clipPath21">
        <path
           d="M-7 -7 L151 -7 L151 51 L-7 51 L-7 -7 Z"
           id="path69" />
      </clipPath>
      <clipPath
         clipPathUnits="userSpaceOnUse"
         id="clipPath22">
        <path
           d="M0 0 L0 36 L140 36 L140 0 Z"
           id="path72" />
      </clipPath>
      <clipPath
         clipPathUnits="userSpaceOnUse"
         id="clipPath23">
        <path
           d="M0 0 L140 0 L140 15 L0 15 L0 0 Z"
           id="path75" />
      </clipPath>
      <clipPath
         clipPathUnits="userSpaceOnUse"
         id="clipPath24">
        <path
           d="M-7 -7 L171 -7 L171 51 L-7 51 L-7 -7 Z"
           id="path78" />
      </clipPath>
      <clipPath
         clipPathUnits="userSpaceOnUse"
         id="clipPath25">
        <path
           d="M0 0 L0 40 L145 40 L145 0 Z"
           id="path81" />
      </clipPath>
      <clipPath
         clipPathUnits="userSpaceOnUse"
         id="clipPath26">
        <path
           d="M0 0 L104 0 L104 183 L0 183 L0 0 Z"
           id="path84" />
      </clipPath>
      <clipPath
         clipPathUnits="userSpaceOnUse"
         id="clipPath27">
        <path
           d="M0 0 L104 0 L104 163 L0 163 L0 0 Z"
           id="path87" />
      </clipPath>
      <clipPath
         clipPathUnits="userSpaceOnUse"
         id="clipPath28">
        <path
           d="M0 0 L183 0 L183 344 L0 344 L0 0 Z"
           id="path90" />
      </clipPath>
      <clipPath
         clipPathUnits="userSpaceOnUse"
         id="clipPath29">
        <path
           d="M0 0 L183 0 L183 104 L0 104 L0 0 Z"
           id="path93" />
      </clipPath>
      <clipPath
         clipPathUnits="userSpaceOnUse"
         id="clipPath30">
        <path
           d="M0 0 L253 0 L253 174 L0 174 L0 0 Z"
           id="path96" />
      </clipPath>
      <clipPath
         clipPathUnits="userSpaceOnUse"
         id="clipPath31">
        <path
           d="M0 0 L154 0 L154 163 L0 163 L0 0 Z"
           id="path99" />
      </clipPath>
      <clipPath
         clipPathUnits="userSpaceOnUse"
         id="clipPath32">
        <path
           d="M0 0 L134 0 L134 193 L0 193 L0 0 Z"
           id="path102" />
      </clipPath>
      <clipPath
         clipPathUnits="userSpaceOnUse"
         id="clipPath33">
        <path
           d="M-29 -15 L58 -15 L58 30 L-29 30 L-29 -15 Z"
           id="path105" />
      </clipPath>
      <clipPath
         clipPathUnits="userSpaceOnUse"
         id="clipPath34">
        <path
           d="M-30 -16 L60 -16 L60 32 L-30 32 L-30 -16 Z"
           id="path108" />
      </clipPath>
    </defs>
    <g
       fill="white"
       text-rendering="geometricPrecision"
       fill-opacity="1"
       stroke-opacity="1"
       stroke="white"
       id="g110">
      <rect
         x="0"
         width="984"
         height="634"
         y="0"
         stroke="none"
         id="rect112" />
    </g>
    <g
       font-size="11"
       transform="translate(230,0)"
       fill-opacity="1"
       fill="rgb(122,207,245)"
       text-rendering="geometricPrecision"
       font-family="sans-serif"
       stroke="rgb(122,207,245)"
       stroke-opacity="1"
       id="g114">
      <rect
         x="0"
         width="149"
         height="20"
         y="0"
         clip-path="url(#clipPath1)"
         stroke="none"
         id="rect116" />
      <rect
         x="0"
         width="749"
         height="609"
         y="20"
         clip-path="url(#clipPath1)"
         stroke="none"
         id="rect118" />
    </g>
    <g
       font-size="11"
       stroke-linecap="butt"
       transform="translate(230,0)"
       fill-opacity="1"
       fill="black"
       text-rendering="geometricPrecision"
       font-family="sans-serif"
       stroke-linejoin="round"
       stroke="black"
       stroke-opacity="1"
       stroke-miterlimit="0"
       id="g120">
      <path
         fill="none"
         d="M0 20 L749 20 L749 629 L0 629 L0 0 L149 0 L149 20"
         clip-path="url(#clipPath1)"
         id="path122" />
    </g>
    <g
       font-size="11"
       transform="translate(230,20)"
       fill-opacity="1"
       fill="black"
       text-rendering="geometricPrecision"
       font-family="sans-serif"
       stroke="black"
       stroke-opacity="1"
       id="g124">
      <text
         x="308"
         xml:space="preserve"
         y="12"
         clip-path="url(#clipPath2)"
         stroke="none"
         id="text126">de.unistuttgart.ipvs.pmp.api</text>
    </g>
    <g
       font-size="11"
       transform="translate(0,240)"
       fill-opacity="1"
       fill="rgb(122,207,245)"
       text-rendering="geometricPrecision"
       font-family="sans-serif"
       stroke="rgb(122,207,245)"
       stroke-opacity="1"
       id="g128">
      <rect
         x="0"
         width="35"
         height="20"
         y="0"
         clip-path="url(#clipPath3)"
         stroke="none"
         id="rect130" />
      <rect
         x="0"
         width="179"
         height="199"
         y="20"
         clip-path="url(#clipPath3)"
         stroke="none"
         id="rect132" />
    </g>
    <g
       font-size="11"
       stroke-linecap="butt"
       transform="translate(0,240)"
       fill-opacity="1"
       fill="black"
       text-rendering="geometricPrecision"
       font-family="sans-serif"
       stroke-linejoin="round"
       stroke="black"
       stroke-opacity="1"
       stroke-miterlimit="0"
       id="g134">
      <path
         fill="none"
         d="M0 20 L179 20 L179 219 L0 219 L0 0 L35 0 L35 20"
         clip-path="url(#clipPath3)"
         id="path136" />
    </g>
    <g
       font-size="11"
       transform="translate(0,260)"
       fill-opacity="1"
       fill="black"
       text-rendering="geometricPrecision"
       font-family="sans-serif"
       stroke="black"
       stroke-opacity="1"
       id="g138">
      <text
         x="49"
         xml:space="preserve"
         y="12"
         clip-path="url(#clipPath4)"
         stroke="none"
         id="text140">mein.basis.paket</text>
    </g>
    <g
       font-size="11"
       transform="translate(240,40)"
       fill-opacity="1"
       fill="rgb(122,207,245)"
       text-rendering="geometricPrecision"
       font-family="sans-serif"
       stroke="rgb(122,207,245)"
       font-weight="bold"
       stroke-opacity="1"
       id="g142">
      <rect
         x="0"
         width="730"
         height="450"
         y="0"
         clip-path="url(#clipPath5)"
         stroke="none"
         id="rect144" />
    </g>
    <g
       font-size="11"
       stroke-linecap="butt"
       transform="translate(240,40)"
       fill-opacity="1"
       fill="black"
       text-rendering="geometricPrecision"
       font-family="sans-serif"
       stroke-linejoin="round"
       stroke="black"
       font-weight="bold"
       stroke-opacity="1"
       stroke-miterlimit="0"
       id="g146">
      <rect
         fill="none"
         x="0"
         width="730"
         height="450"
         y="0"
         clip-path="url(#clipPath5)"
         id="rect148" />
      <line
         y2="30"
         fill="none"
         x1="0"
         clip-path="url(#clipPath5)"
         x2="730"
         y1="30"
         id="line150" />
    </g>
    <g
       font-size="11"
       transform="translate(240,70)"
       fill-opacity="1"
       fill="black"
       text-rendering="geometricPrecision"
       font-family="sans-serif"
       stroke="black"
       stroke-opacity="1"
       id="g152">
      <text
         x="2"
         xml:space="preserve"
         y="14"
         clip-path="url(#clipPath6)"
         stroke="none"
         id="text154">+areServiceFeaturesDisabled(serviceFeatures : List&lt;String&gt;) : boolean</text>
      <text
         x="2"
         xml:space="preserve"
         y="29"
         clip-path="url(#clipPath6)"
         stroke="none"
         id="text156">+areServiceFeaturesDisabled(serviceFeatures : String ...) : boolean</text>
      <text
         x="2"
         xml:space="preserve"
         y="44"
         clip-path="url(#clipPath6)"
         stroke="none"
         id="text158">+areServiceFeaturesEnabled(serviceFeatures : List&lt;String&gt;) : boolean</text>
      <text
         x="2"
         xml:space="preserve"
         y="59"
         clip-path="url(#clipPath6)"
         stroke="none"
         id="text160">+areServiceFeaturesEnabled(serviceFeatures : String ...) : boolean</text>
      <text
         x="2"
         xml:space="preserve"
         y="74"
         clip-path="url(#clipPath6)"
         stroke="none"
         id="text162">+getResource(resource : PMPResourceIdentifier) : void</text>
      <text
         x="2"
         xml:space="preserve"
         y="89"
         clip-path="url(#clipPath6)"
         stroke="none"
         id="text164">+getResource(resource : PMPResourceIdentifier, handler : PMPRequestResourceHandler) : void</text>
      <text
         x="2"
         xml:space="preserve"
         y="104"
         clip-path="url(#clipPath6)"
         stroke="none"
         id="text166">+getResource(resource : PMPResourceIdentifier, handler : PMPRequestResourceHandler, timeout : int)</text>
      <text
         x="2"
         xml:space="preserve"
         y="119"
         clip-path="url(#clipPath6)"
         stroke="none"
         id="text168">+getResourceFromCache(resource : PMPResourceIdentifier) : IBinder</text>
      <text
         x="2"
         xml:space="preserve"
         y="134"
         clip-path="url(#clipPath6)"
         stroke="none"
         id="text170">+getServiceFeatures() : Map&lt;String, Boolean&gt;</text>
      <text
         x="2"
         xml:space="preserve"
         y="149"
         clip-path="url(#clipPath6)"
         stroke="none"
         id="text172">+isResourceCached(resource : PMPResourceIdentifier) : boolean</text>
      <text
         x="2"
         xml:space="preserve"
         y="164"
         clip-path="url(#clipPath6)"
         stroke="none"
         id="text174">+isServiceFeatureEnabled(serviceFeature : String) : boolean</text>
      <text
         x="2"
         xml:space="preserve"
         y="179"
         clip-path="url(#clipPath6)"
         stroke="none"
         id="text176">+listAllServiceFeatures() : Set&lt;String&gt;</text>
      <text
         x="2"
         xml:space="preserve"
         y="194"
         clip-path="url(#clipPath6)"
         stroke="none"
         id="text178">+listDisabledServiceFeatures(serviceFeatures : List&lt;String&gt;) : List&lt;String&gt;</text>
      <text
         x="2"
         xml:space="preserve"
         y="209"
         clip-path="url(#clipPath6)"
         stroke="none"
         id="text180">+listDisabledServiceFeatures(serviceFeatures : String ...) : List&lt;String&gt;</text>
      <text
         x="2"
         xml:space="preserve"
         y="224"
         clip-path="url(#clipPath6)"
         stroke="none"
         id="text182">+listEnabledServiceFeatures(serviceFeatures : List&lt;String&gt;) : List&lt;String&gt;</text>
      <text
         x="2"
         xml:space="preserve"
         y="239"
         clip-path="url(#clipPath6)"
         stroke="none"
         id="text184">+listEnabledServiceFeatures(serviceFeatures : String ...) : List&lt;String&gt;</text>
      <text
         x="2"
         xml:space="preserve"
         y="254"
         clip-path="url(#clipPath6)"
         stroke="none"
         id="text186">+register(activity : Activity) : void</text>
      <text
         x="2"
         xml:space="preserve"
         y="269"
         clip-path="url(#clipPath6)"
         stroke="none"
         id="text188">+register(handler : PMPRegistrationHandler) : void</text>
      <text
         x="2"
         xml:space="preserve"
         y="284"
         clip-path="url(#clipPath6)"
         stroke="none"
         id="text190">+register(handler : PMPRegistrationHandler, timeout : int) : void</text>
      <text
         x="2"
         xml:space="preserve"
         y="299"
         clip-path="url(#clipPath6)"
         stroke="none"
         id="text192">+requestServiceFeatures(activity : Activity, serviceFeatures : List&lt;String&gt;) : void</text>
      <text
         x="2"
         xml:space="preserve"
         y="314"
         clip-path="url(#clipPath6)"
         stroke="none"
         id="text194">+requestServiceFeatures(activity : Activity, serviceFeatures : String ...) : void</text>
      <text
         x="2"
         xml:space="preserve"
         y="329"
         clip-path="url(#clipPath6)"
         stroke="none"
         id="text196">+requestServiceFeatures(serviceFeatures : List&lt;String&gt;, handler : PMPRequestServiceFeaturesHandler) : void</text>
      <text
         x="2"
         xml:space="preserve"
         y="344"
         clip-path="url(#clipPath6)"
         stroke="none"
         id="text198">+requestServiceFeatures(serviceFeatures : List&lt;String&gt;, handler : PMPRequestServiceFeaturesHandler, showDialog : boolean) : void</text>
      <text
         x="2"
         xml:space="preserve"
         y="359"
         clip-path="url(#clipPath6)"
         stroke="none"
         id="text200">+requestServiceFeatures(serviceFeatures : List&lt;String&gt;, handler : PMPRequestServiceFeaturesHandler, showDialog : boolean, timeout : int) : void</text>
      <text
         x="2"
         xml:space="preserve"
         y="374"
         clip-path="url(#clipPath6)"
         stroke="none"
         id="text202">+updateServiceFeatures() : void</text>
      <text
         x="2"
         xml:space="preserve"
         y="389"
         clip-path="url(#clipPath6)"
         stroke="none"
         id="text204">+updateServiceFeatures(handler : PMPServiceFeatureUpdateHandler) : void</text>
      <text
         x="2"
         xml:space="preserve"
         y="404"
         clip-path="url(#clipPath6)"
         stroke="none"
         id="text206">+updateServiceFeatures(handler : PMPServiceFeatureUpdateHandler, timeout : int) : void</text>
    </g>
    <g
       font-size="11"
       transform="translate(240,40)"
       fill-opacity="1"
       fill="black"
       text-rendering="geometricPrecision"
       font-family="sans-serif"
       stroke="black"
       stroke-opacity="1"
       id="g208">
      <text
         x="330"
         xml:space="preserve"
         y="12"
         clip-path="url(#clipPath7)"
         stroke="none"
         id="text210">&lt;&lt;Interface&gt;&gt;</text>
      <text
         x="351"
         xml:space="preserve"
         y="27"
         font-weight="bold"
         clip-path="url(#clipPath7)"
         stroke="none"
         id="text212">IPMP</text>
    </g>
    <g
       font-size="11"
       transform="translate(780,570)"
       fill-opacity="1"
       fill="rgb(122,207,245)"
       text-rendering="geometricPrecision"
       font-family="sans-serif"
       stroke="rgb(122,207,245)"
       font-weight="bold"
       stroke-opacity="1"
       id="g214">
      <rect
         x="0"
         width="188"
         height="53"
         y="0"
         clip-path="url(#clipPath8)"
         stroke="none"
         id="rect216" />
    </g>
    <g
       font-size="11"
       stroke-linecap="butt"
       transform="translate(780,570)"
       fill-opacity="1"
       fill="black"
       text-rendering="geometricPrecision"
       font-family="sans-serif"
       stroke-linejoin="round"
       stroke="black"
       font-weight="bold"
       stroke-opacity="1"
       stroke-miterlimit="0"
       id="g218">
      <rect
         fill="none"
         x="0"
         width="188"
         height="53"
         y="0"
         clip-path="url(#clipPath8)"
         id="rect220" />
      <line
         y2="15"
         fill="none"
         x1="0"
         clip-path="url(#clipPath8)"
         x2="188"
         y1="15"
         id="line222" />
    </g>
    <g
       font-size="11"
       transform="translate(780,585)"
       fill-opacity="1"
       fill="black"
       text-rendering="geometricPrecision"
       font-family="sans-serif"
       stroke="black"
       stroke-opacity="1"
       id="g224">
      <text
         x="2"
         xml:space="preserve"
         y="14"
         clip-path="url(#clipPath9)"
         stroke="none"
         id="text226">+get(application : Application) : IPMP</text>
      <line
         y2="16"
         fill="none"
         x1="2"
         clip-path="url(#clipPath9)"
         x2="175"
         y1="16"
         id="line228" />
      <text
         x="2"
         xml:space="preserve"
         y="29"
         clip-path="url(#clipPath9)"
         stroke="none"
         id="text230">+get() : IPMP</text>
      <line
         y2="31"
         fill="none"
         x1="2"
         clip-path="url(#clipPath9)"
         x2="62"
         y1="31"
         id="line232" />
    </g>
    <g
       font-size="11"
       transform="translate(780,570)"
       fill-opacity="1"
       fill="black"
       text-rendering="geometricPrecision"
       font-family="sans-serif"
       stroke="black"
       font-weight="bold"
       stroke-opacity="1"
       id="g234">
      <text
         x="82"
         xml:space="preserve"
         y="12"
         clip-path="url(#clipPath10)"
         stroke="none"
         id="text236">PMP</text>
    </g>
    <g
       font-size="11"
       transform="translate(240,550)"
       fill-opacity="1"
       fill="rgb(122,207,245)"
       text-rendering="geometricPrecision"
       font-family="sans-serif"
       stroke="rgb(122,207,245)"
       font-weight="bold"
       stroke-opacity="1"
       id="g238">
      <rect
         x="0"
         width="411"
         height="68"
         y="0"
         clip-path="url(#clipPath11)"
         stroke="none"
         id="rect240" />
    </g>
    <g
       font-size="11"
       stroke-linecap="butt"
       transform="translate(240,550)"
       fill-opacity="1"
       fill="black"
       text-rendering="geometricPrecision"
       font-family="sans-serif"
       stroke-linejoin="round"
       stroke="black"
       font-weight="bold"
       stroke-opacity="1"
       stroke-miterlimit="0"
       id="g242">
      <rect
         fill="none"
         x="0"
         width="411"
         height="68"
         y="0"
         clip-path="url(#clipPath11)"
         id="rect244" />
      <line
         y2="15"
         fill="none"
         x1="0"
         clip-path="url(#clipPath11)"
         x2="411"
         y1="15"
         id="line246" />
    </g>
    <g
       font-size="11"
       transform="translate(240,565)"
       fill-opacity="1"
       fill="black"
       text-rendering="geometricPrecision"
       font-family="sans-serif"
       stroke="black"
       stroke-opacity="1"
       id="g248">
      <text
         x="2"
         xml:space="preserve"
         y="14"
         clip-path="url(#clipPath12)"
         stroke="none"
         id="text250">+make(resourceGroupPackage : String, resource : String) : PMPResourceIdentifier</text>
      <line
         y2="16"
         fill="none"
         x1="2"
         clip-path="url(#clipPath12)"
         x2="397"
         y1="16"
         id="line252" />
      <text
         x="2"
         xml:space="preserve"
         y="29"
         clip-path="url(#clipPath12)"
         stroke="none"
         id="text254">+getResource() : String</text>
      <text
         x="2"
         xml:space="preserve"
         y="44"
         clip-path="url(#clipPath12)"
         stroke="none"
         id="text256">+getResourceGroup() : String</text>
    </g>
    <g
       font-size="11"
       transform="translate(240,550)"
       fill-opacity="1"
       fill="black"
       text-rendering="geometricPrecision"
       font-family="sans-serif"
       stroke="black"
       font-weight="bold"
       stroke-opacity="1"
       id="g258">
      <text
         x="144"
         xml:space="preserve"
         y="12"
         clip-path="url(#clipPath13)"
         stroke="none"
         id="text260">PMPResourceIdentifier</text>
    </g>
    <g
       font-size="11"
       transform="translate(10,280)"
       fill-opacity="1"
       fill="rgb(122,207,245)"
       text-rendering="geometricPrecision"
       font-family="sans-serif"
       stroke="rgb(122,207,245)"
       font-weight="bold"
       stroke-opacity="1"
       id="g262">
      <rect
         x="0"
         width="150"
         height="70"
         y="0"
         clip-path="url(#clipPath14)"
         stroke="none"
         id="rect264" />
    </g>
    <g
       font-size="11"
       stroke-linecap="butt"
       transform="translate(10,280)"
       fill-opacity="1"
       fill="black"
       text-rendering="geometricPrecision"
       font-family="sans-serif"
       stroke-linejoin="round"
       stroke="black"
       font-weight="bold"
       stroke-opacity="1"
       stroke-miterlimit="0"
       id="g266">
      <rect
         fill="none"
         x="0"
         width="150"
         height="70"
         y="0"
         clip-path="url(#clipPath14)"
         id="rect268" />
      <line
         y2="15"
         fill="none"
         x1="0"
         clip-path="url(#clipPath14)"
         x2="150"
         y1="15"
         id="line270" />
    </g>
    <g
       font-size="11"
       transform="translate(10,280)"
       fill-opacity="1"
       fill="black"
       text-rendering="geometricPrecision"
       font-family="sans-serif"
       stroke="black"
       font-weight="bold"
       stroke-opacity="1"
       id="g272">
      <text
         x="19"
         xml:space="preserve"
         y="12"
         clip-path="url(#clipPath16)"
         stroke="none"
         id="text274">AppImplementierung</text>
    </g>
    <g
       font-size="11"
       transform="translate(240,500)"
       fill-opacity="1"
       fill="rgb(122,207,245)"
       text-rendering="geometricPrecision"
       font-family="sans-serif"
       stroke="rgb(122,207,245)"
       font-weight="bold"
       stroke-opacity="1"
       id="g276">
      <rect
         x="0"
         width="180"
         height="40"
         y="0"
         clip-path="url(#clipPath17)"
         stroke="none"
         id="rect278" />
    </g>
    <g
       font-size="11"
       stroke-linecap="butt"
       transform="translate(240,500)"
       fill-opacity="1"
       fill="black"
       text-rendering="geometricPrecision"
       font-family="sans-serif"
       stroke-linejoin="round"
       stroke="black"
       font-weight="bold"
       stroke-opacity="1"
       stroke-miterlimit="0"
       id="g280">
      <rect
         fill="none"
         x="0"
         width="180"
         height="40"
         y="0"
         clip-path="url(#clipPath17)"
         id="rect282" />
      <line
         y2="15"
         fill="none"
         x1="0"
         clip-path="url(#clipPath17)"
         x2="180"
         y1="15"
         id="line284" />
    </g>
    <g
       font-size="11"
       transform="translate(240,500)"
       fill-opacity="1"
       fill="black"
       text-rendering="geometricPrecision"
       font-family="sans-serif"
       stroke="black"
       font-weight="bold"
       stroke-opacity="1"
       id="g286">
      <text
         x="10"
         xml:space="preserve"
         y="12"
         clip-path="url(#clipPath4)"
         stroke="none"
         id="text288">PMPRequestResourceHandler</text>
    </g>
    <g
       font-size="11"
       transform="translate(80,540)"
       fill-opacity="1"
       fill="rgb(122,207,245)"
       text-rendering="geometricPrecision"
       font-family="sans-serif"
       stroke="rgb(122,207,245)"
       stroke-opacity="1"
       id="g290">
      <polygon
         points=" 0 0 104 0 119 15 104 15 104 0 119 15 119 39 0 39"
         clip-path="url(#clipPath19)"
         stroke="none"
         id="polygon292" />
    </g>
    <g
       font-size="11"
       stroke-linecap="butt"
       transform="translate(80,540)"
       fill-opacity="1"
       fill="black"
       text-rendering="geometricPrecision"
       font-family="sans-serif"
       stroke-linejoin="round"
       stroke="black"
       stroke-opacity="1"
       stroke-miterlimit="0"
       id="g294">
      <polygon
         fill="none"
         points=" 0 0 104 0 119 15 104 15 104 0 119 15 119 39 0 39"
         clip-path="url(#clipPath19)"
         id="polygon296" />
    </g>
    <g
       font-size="11"
       transform="translate(80,540)"
       fill-opacity="1"
       fill="black"
       text-rendering="geometricPrecision"
       font-family="sans-serif"
       stroke="black"
       stroke-opacity="1"
       id="g298">
      <path
         d="M4.125 14.9704 L4.125 6.3767 L5.25 6.3767 L5.25 14.9704 L4.125 14.9704 ZM10.8281 14.9704 L10.8281 14.1892 Q10.2344 15.1111 9.0938 15.1111 Q8.3438 15.1111 7.7188 14.697 Q7.0938 14.2829 6.75 13.5486 Q6.4062 12.8142 6.4062 11.8611 Q6.4062 10.9392 6.7188 10.1736 Q7.0312 9.4079 7.6562 9.0095 Q8.2812 8.6111 9.0469 8.6111 Q9.6094 8.6111 10.0469 8.8454 Q10.4844 9.0798 10.7656 9.4548 L10.7656 6.3767 L11.8125 6.3767 L11.8125 14.9704 L10.8281 14.9704 ZM7.5 11.8611 Q7.5 13.0642 8 13.6501 Q8.5 14.2361 9.1875 14.2361 Q9.875 14.2361 10.3594 13.6736 Q10.8438 13.1111 10.8438 11.9548 Q10.8438 10.6736 10.3516 10.0798 Q9.8594 9.4861 9.1406 9.4861 Q8.4375 9.4861 7.9688 10.0564 Q7.5 10.6267 7.5 11.8611 ZM18.0469 12.9704 L19.1406 13.0954 Q18.8906 14.0486 18.1875 14.5798 Q17.4844 15.1111 16.4062 15.1111 Q15.0469 15.1111 14.2422 14.2673 Q13.4375 13.4236 13.4375 11.9079 Q13.4375 10.3454 14.25 9.4782 Q15.0625 8.6111 16.3438 8.6111 Q17.5938 8.6111 18.3828 9.4548 Q19.1719 10.2986 19.1719 11.8454 Q19.1719 11.9392 19.1719 12.1267 L14.5312 12.1267 Q14.5938 13.1579 15.1094 13.697 Q15.625 14.2361 16.4062 14.2361 Q16.9844 14.2361 17.3984 13.9314 Q17.8125 13.6267 18.0469 12.9704 ZM14.5938 11.2673 L18.0625 11.2673 Q18 10.4704 17.6719 10.0798 Q17.1562 9.4704 16.3594 9.4704 Q15.625 9.4704 15.1328 9.9548 Q14.6406 10.4392 14.5938 11.2673 ZM20.7969 14.9704 L20.7969 8.7517 L21.7344 8.7517 L21.7344 9.6267 Q22.4219 8.6111 23.7188 8.6111 Q24.2812 8.6111 24.7578 8.8142 Q25.2344 9.0173 25.4688 9.3454 Q25.7031 9.6736 25.7969 10.1111 Q25.8438 10.4079 25.8438 11.1423 L25.8438 14.9704 L24.7969 14.9704 L24.7969 11.1892 Q24.7969 10.5329 24.6719 10.2204 Q24.5469 9.9079 24.2344 9.7126 Q23.9219 9.5173 23.5 9.5173 Q22.8281 9.5173 22.3359 9.947 Q21.8438 10.3767 21.8438 11.5642 L21.8438 14.9704 L20.7969 14.9704 ZM30.0938 14.0329 L30.25 14.9548 Q29.7969 15.0486 29.4531 15.0486 Q28.875 15.0486 28.5625 14.8689 Q28.25 14.6892 28.1172 14.3923 Q27.9844 14.0954 27.9844 13.1423 L27.9844 9.5642 L27.2188 9.5642 L27.2188 8.7517 L27.9844 8.7517 L27.9844 7.2048 L29.0312 6.5798 L29.0312 8.7517 L30.0938 8.7517 L30.0938 9.5642 L29.0312 9.5642 L29.0312 13.2048 Q29.0312 13.6579 29.0859 13.7829 Q29.1406 13.9079 29.2656 13.9861 Q29.3906 14.0642 29.625 14.0642 Q29.8125 14.0642 30.0938 14.0329 ZM30.7969 7.5954 L30.7969 6.3767 L31.8594 6.3767 L31.8594 7.5954 L30.7969 7.5954 ZM30.7969 14.9704 L30.7969 8.7517 L31.8594 8.7517 L31.8594 14.9704 L30.7969 14.9704 ZM34.0469 14.9704 L34.0469 9.5642 L33.1094 9.5642 L33.1094 8.7517 L34.0469 8.7517 L34.0469 8.0798 Q34.0469 7.4548 34.1562 7.1579 Q34.3125 6.7361 34.6953 6.4861 Q35.0781 6.2361 35.7656 6.2361 Q36.2188 6.2361 36.75 6.3454 L36.5938 7.2517 Q36.2656 7.2048 35.9688 7.2048 Q35.4844 7.2048 35.2891 7.4079 Q35.0938 7.6111 35.0938 8.1736 L35.0938 8.7517 L36.3125 8.7517 L36.3125 9.5642 L35.0938 9.5642 L35.0938 14.9704 L34.0469 14.9704 ZM36.7969 7.5954 L36.7969 6.3767 L37.8594 6.3767 L37.8594 7.5954 L36.7969 7.5954 ZM36.7969 14.9704 L36.7969 8.7517 L37.8594 8.7517 L37.8594 14.9704 L36.7969 14.9704 ZM39.2344 14.9704 L39.2344 14.1111 L43.2031 9.5642 Q42.5156 9.5954 42 9.5954 L39.4688 9.5954 L39.4688 8.7517 L44.5625 8.7517 L44.5625 9.4392 L41.1875 13.3923 L40.5312 14.1111 Q41.25 14.0642 41.8594 14.0642 L44.75 14.0642 L44.75 14.9704 L39.2344 14.9704 ZM44.7969 7.5954 L44.7969 6.3767 L45.8594 6.3767 L45.8594 7.5954 L44.7969 7.5954 ZM44.7969 14.9704 L44.7969 8.7517 L45.8594 8.7517 L45.8594 14.9704 L44.7969 14.9704 ZM52.0469 12.9704 L53.1406 13.0954 Q52.8906 14.0486 52.1875 14.5798 Q51.4844 15.1111 50.4062 15.1111 Q49.0469 15.1111 48.2422 14.2673 Q47.4375 13.4236 47.4375 11.9079 Q47.4375 10.3454 48.25 9.4782 Q49.0625 8.6111 50.3438 8.6111 Q51.5938 8.6111 52.3828 9.4548 Q53.1719 10.2986 53.1719 11.8454 Q53.1719 11.9392 53.1719 12.1267 L48.5312 12.1267 Q48.5938 13.1579 49.1094 13.697 Q49.625 14.2361 50.4062 14.2361 Q50.9844 14.2361 51.3984 13.9314 Q51.8125 13.6267 52.0469 12.9704 ZM48.5938 11.2673 L52.0625 11.2673 Q52 10.4704 51.6719 10.0798 Q51.1562 9.4704 50.3594 9.4704 Q49.625 9.4704 49.1328 9.9548 Q48.6406 10.4392 48.5938 11.2673 ZM54.7812 14.9704 L54.7812 8.7517 L55.7344 8.7517 L55.7344 9.6892 Q56.0938 9.0329 56.3984 8.822 Q56.7031 8.6111 57.0781 8.6111 Q57.6094 8.6111 58.1562 8.9392 L57.7969 9.9236 Q57.4062 9.6892 57.0312 9.6892 Q56.6719 9.6892 56.3984 9.9001 Q56.125 10.1111 56.0156 10.4861 Q55.8281 11.0486 55.8281 11.7048 L55.8281 14.9704 L54.7812 14.9704 ZM63.0469 12.9704 L64.1406 13.0954 Q63.8906 14.0486 63.1875 14.5798 Q62.4844 15.1111 61.4062 15.1111 Q60.0469 15.1111 59.2422 14.2673 Q58.4375 13.4236 58.4375 11.9079 Q58.4375 10.3454 59.25 9.4782 Q60.0625 8.6111 61.3438 8.6111 Q62.5938 8.6111 63.3828 9.4548 Q64.1719 10.2986 64.1719 11.8454 Q64.1719 11.9392 64.1719 12.1267 L59.5312 12.1267 Q59.5938 13.1579 60.1094 13.697 Q60.625 14.2361 61.4062 14.2361 Q61.9844 14.2361 62.3984 13.9314 Q62.8125 13.6267 63.0469 12.9704 ZM59.5938 11.2673 L63.0625 11.2673 Q63 10.4704 62.6719 10.0798 Q62.1562 9.4704 61.3594 9.4704 Q60.625 9.4704 60.1328 9.9548 Q59.6406 10.4392 59.5938 11.2673 ZM65.7969 14.9704 L65.7969 8.7517 L66.7344 8.7517 L66.7344 9.6267 Q67.4219 8.6111 68.7188 8.6111 Q69.2812 8.6111 69.7578 8.8142 Q70.2344 9.0173 70.4688 9.3454 Q70.7031 9.6736 70.7969 10.1111 Q70.8438 10.4079 70.8438 11.1423 L70.8438 14.9704 L69.7969 14.9704 L69.7969 11.1892 Q69.7969 10.5329 69.6719 10.2204 Q69.5469 9.9079 69.2344 9.7126 Q68.9219 9.5173 68.5 9.5173 Q67.8281 9.5173 67.3359 9.947 Q66.8438 10.3767 66.8438 11.5642 L66.8438 14.9704 L65.7969 14.9704 ZM79.8281 14.9704 L79.8281 14.1892 Q79.2344 15.1111 78.0938 15.1111 Q77.3438 15.1111 76.7188 14.697 Q76.0938 14.2829 75.75 13.5486 Q75.4062 12.8142 75.4062 11.8611 Q75.4062 10.9392 75.7188 10.1736 Q76.0312 9.4079 76.6562 9.0095 Q77.2812 8.6111 78.0469 8.6111 Q78.6094 8.6111 79.0469 8.8454 Q79.4844 9.0798 79.7656 9.4548 L79.7656 6.3767 L80.8125 6.3767 L80.8125 14.9704 L79.8281 14.9704 ZM76.5 11.8611 Q76.5 13.0642 77 13.6501 Q77.5 14.2361 78.1875 14.2361 Q78.875 14.2361 79.3594 13.6736 Q79.8438 13.1111 79.8438 11.9548 Q79.8438 10.6736 79.3516 10.0798 Q78.8594 9.4861 78.1406 9.4861 Q77.4375 9.4861 76.9688 10.0564 Q76.5 10.6267 76.5 11.8611 ZM87.0469 12.9704 L88.1406 13.0954 Q87.8906 14.0486 87.1875 14.5798 Q86.4844 15.1111 85.4062 15.1111 Q84.0469 15.1111 83.2422 14.2673 Q82.4375 13.4236 82.4375 11.9079 Q82.4375 10.3454 83.25 9.4782 Q84.0625 8.6111 85.3438 8.6111 Q86.5938 8.6111 87.3828 9.4548 Q88.1719 10.2986 88.1719 11.8454 Q88.1719 11.9392 88.1719 12.1267 L83.5312 12.1267 Q83.5938 13.1579 84.1094 13.697 Q84.625 14.2361 85.4062 14.2361 Q85.9844 14.2361 86.3984 13.9314 Q86.8125 13.6267 87.0469 12.9704 ZM83.5938 11.2673 L87.0625 11.2673 Q87 10.4704 86.6719 10.0798 Q86.1562 9.4704 85.3594 9.4704 Q84.625 9.4704 84.1328 9.9548 Q83.6406 10.4392 83.5938 11.2673 ZM89.7812 14.9704 L89.7812 8.7517 L90.7344 8.7517 L90.7344 9.6892 Q91.0938 9.0329 91.3984 8.822 Q91.7031 8.6111 92.0781 8.6111 Q92.6094 8.6111 93.1562 8.9392 L92.7969 9.9236 Q92.4062 9.6892 92.0312 9.6892 Q91.6719 9.6892 91.3984 9.9001 Q91.125 10.1111 91.0156 10.4861 Q90.8281 11.0486 90.8281 11.7048 L90.8281 14.9704 L89.7812 14.9704 Z"
         clip-path="url(#clipPath20)"
         stroke="none"
         id="path300" />
      <path
         d="M3.9375 29.9704 L3.9375 21.3767 L7.75 21.3767 Q8.9062 21.3767 9.5 21.6111 Q10.0938 21.8454 10.4531 22.4314 Q10.8125 23.0173 10.8125 23.7204 Q10.8125 24.6423 10.2188 25.2673 Q9.625 25.8923 8.3906 26.0642 Q8.8438 26.2829 9.0781 26.4861 Q9.5781 26.9392 10.0156 27.6267 L11.5156 29.9704 L10.0781 29.9704 L8.9531 28.1892 Q8.4531 27.4079 8.1328 27.0017 Q7.8125 26.5954 7.5547 26.4314 Q7.2969 26.2673 7.0312 26.1892 Q6.8438 26.1579 6.4062 26.1579 L5.0781 26.1579 L5.0781 29.9704 L3.9375 29.9704 ZM5.0781 25.1736 L7.5312 25.1736 Q8.2969 25.1736 8.7422 25.0095 Q9.1875 24.8454 9.4141 24.4939 Q9.6406 24.1423 9.6406 23.7204 Q9.6406 23.1111 9.1953 22.7204 Q8.75 22.3298 7.7969 22.3298 L5.0781 22.3298 L5.0781 25.1736 ZM17.0469 27.9704 L18.1406 28.0954 Q17.8906 29.0486 17.1875 29.5798 Q16.4844 30.1111 15.4062 30.1111 Q14.0469 30.1111 13.2422 29.2673 Q12.4375 28.4236 12.4375 26.9079 Q12.4375 25.3454 13.25 24.4782 Q14.0625 23.6111 15.3438 23.6111 Q16.5938 23.6111 17.3828 24.4548 Q18.1719 25.2986 18.1719 26.8454 Q18.1719 26.9392 18.1719 27.1267 L13.5312 27.1267 Q13.5938 28.1579 14.1094 28.697 Q14.625 29.2361 15.4062 29.2361 Q15.9844 29.2361 16.3984 28.9314 Q16.8125 28.6267 17.0469 27.9704 ZM13.5938 26.2673 L17.0625 26.2673 Q17 25.4704 16.6719 25.0798 Q16.1562 24.4704 15.3594 24.4704 Q14.625 24.4704 14.1328 24.9548 Q13.6406 25.4392 13.5938 26.2673 ZM19.375 28.1111 L20.4062 27.9548 Q20.5 28.5798 20.8984 28.9079 Q21.2969 29.2361 22.0312 29.2361 Q22.75 29.2361 23.1016 28.947 Q23.4531 28.6579 23.4531 28.2517 Q23.4531 27.8923 23.1406 27.6892 Q22.9219 27.5486 22.0625 27.3298 Q20.9062 27.0329 20.4609 26.822 Q20.0156 26.6111 19.7812 26.2361 Q19.5469 25.8611 19.5469 25.3923 Q19.5469 24.9861 19.7344 24.6267 Q19.9219 24.2673 20.25 24.0329 Q20.5 23.8611 20.9219 23.7361 Q21.3438 23.6111 21.8438 23.6111 Q22.5625 23.6111 23.1172 23.822 Q23.6719 24.0329 23.9375 24.3923 Q24.2031 24.7517 24.2969 25.3454 L23.2656 25.4861 Q23.2031 25.0173 22.8672 24.7439 Q22.5312 24.4704 21.9062 24.4704 Q21.1875 24.4704 20.875 24.7126 Q20.5625 24.9548 20.5625 25.2829 Q20.5625 25.4861 20.6875 25.6423 Q20.8281 25.8142 21.0938 25.9236 Q21.25 25.9861 22.0312 26.1892 Q23.1562 26.5017 23.5938 26.6892 Q24.0312 26.8767 24.2812 27.2361 Q24.5312 27.5954 24.5312 28.1423 Q24.5312 28.6736 24.2266 29.1345 Q23.9219 29.5954 23.3438 29.8532 Q22.7656 30.1111 22.0312 30.1111 Q20.8125 30.1111 20.1797 29.6032 Q19.5469 29.0954 19.375 28.1111 ZM26.375 28.1111 L27.4062 27.9548 Q27.5 28.5798 27.8984 28.9079 Q28.2969 29.2361 29.0312 29.2361 Q29.75 29.2361 30.1016 28.947 Q30.4531 28.6579 30.4531 28.2517 Q30.4531 27.8923 30.1406 27.6892 Q29.9219 27.5486 29.0625 27.3298 Q27.9062 27.0329 27.4609 26.822 Q27.0156 26.6111 26.7812 26.2361 Q26.5469 25.8611 26.5469 25.3923 Q26.5469 24.9861 26.7344 24.6267 Q26.9219 24.2673 27.25 24.0329 Q27.5 23.8611 27.9219 23.7361 Q28.3438 23.6111 28.8438 23.6111 Q29.5625 23.6111 30.1172 23.822 Q30.6719 24.0329 30.9375 24.3923 Q31.2031 24.7517 31.2969 25.3454 L30.2656 25.4861 Q30.2031 25.0173 29.8672 24.7439 Q29.5312 24.4704 28.9062 24.4704 Q28.1875 24.4704 27.875 24.7126 Q27.5625 24.9548 27.5625 25.2829 Q27.5625 25.4861 27.6875 25.6423 Q27.8281 25.8142 28.0938 25.9236 Q28.25 25.9861 29.0312 26.1892 Q30.1562 26.5017 30.5938 26.6892 Q31.0312 26.8767 31.2812 27.2361 Q31.5312 27.5954 31.5312 28.1423 Q31.5312 28.6736 31.2266 29.1345 Q30.9219 29.5954 30.3438 29.8532 Q29.7656 30.1111 29.0312 30.1111 Q27.8125 30.1111 27.1797 29.6032 Q26.5469 29.0954 26.375 28.1111 ZM33.4062 26.8611 Q33.4062 25.1267 34.3594 24.2986 Q35.1562 23.6111 36.3125 23.6111 Q37.5938 23.6111 38.4141 24.447 Q39.2344 25.2829 39.2344 26.7673 Q39.2344 27.9704 38.875 28.6579 Q38.5156 29.3454 37.8203 29.7282 Q37.125 30.1111 36.3125 30.1111 Q35.0156 30.1111 34.2109 29.2751 Q33.4062 28.4392 33.4062 26.8611 ZM34.4844 26.8611 Q34.4844 28.0486 35.0078 28.6423 Q35.5312 29.2361 36.3125 29.2361 Q37.1094 29.2361 37.625 28.6423 Q38.1406 28.0486 38.1406 26.8298 Q38.1406 25.6736 37.6172 25.0798 Q37.0938 24.4861 36.3125 24.4861 Q35.5312 24.4861 35.0078 25.072 Q34.4844 25.6579 34.4844 26.8611 ZM44.875 29.9704 L44.875 29.0486 Q44.1406 30.1111 42.8906 30.1111 Q42.3438 30.1111 41.8672 29.9001 Q41.3906 29.6892 41.1562 29.3689 Q40.9219 29.0486 40.8281 28.5798 Q40.7656 28.2829 40.7656 27.5954 L40.7656 23.7517 L41.8281 23.7517 L41.8281 27.2048 Q41.8281 28.0173 41.8906 28.3142 Q41.9844 28.7204 42.3047 28.9626 Q42.625 29.2048 43.1094 29.2048 Q43.5781 29.2048 43.9922 28.9626 Q44.4062 28.7204 44.5859 28.2986 Q44.7656 27.8767 44.7656 27.0798 L44.7656 23.7517 L45.8125 23.7517 L45.8125 29.9704 L44.875 29.9704 ZM47.7812 29.9704 L47.7812 23.7517 L48.7344 23.7517 L48.7344 24.6892 Q49.0938 24.0329 49.3984 23.822 Q49.7031 23.6111 50.0781 23.6111 Q50.6094 23.6111 51.1562 23.9392 L50.7969 24.9236 Q50.4062 24.6892 50.0312 24.6892 Q49.6719 24.6892 49.3984 24.9001 Q49.125 25.1111 49.0156 25.4861 Q48.8281 26.0486 48.8281 26.7048 L48.8281 29.9704 L47.7812 29.9704 ZM55.8594 27.6892 L56.8906 27.8298 Q56.7188 28.8923 56.0156 29.5017 Q55.3125 30.1111 54.2969 30.1111 Q53.0156 30.1111 52.2422 29.2751 Q51.4688 28.4392 51.4688 26.8767 Q51.4688 25.8767 51.8047 25.1189 Q52.1406 24.3611 52.8203 23.9861 Q53.5 23.6111 54.3125 23.6111 Q55.3125 23.6111 55.9609 24.1189 Q56.6094 24.6267 56.7969 25.5798 L55.7656 25.7361 Q55.625 25.1111 55.25 24.7907 Q54.875 24.4704 54.3438 24.4704 Q53.5469 24.4704 53.0469 25.0407 Q52.5469 25.6111 52.5469 26.8454 Q52.5469 28.1111 53.0312 28.6736 Q53.5156 29.2361 54.2812 29.2361 Q54.9062 29.2361 55.3203 28.8611 Q55.7344 28.4861 55.8594 27.6892 ZM62.0469 27.9704 L63.1406 28.0954 Q62.8906 29.0486 62.1875 29.5798 Q61.4844 30.1111 60.4062 30.1111 Q59.0469 30.1111 58.2422 29.2673 Q57.4375 28.4236 57.4375 26.9079 Q57.4375 25.3454 58.25 24.4782 Q59.0625 23.6111 60.3438 23.6111 Q61.5938 23.6111 62.3828 24.4548 Q63.1719 25.2986 63.1719 26.8454 Q63.1719 26.9392 63.1719 27.1267 L58.5312 27.1267 Q58.5938 28.1579 59.1094 28.697 Q59.625 29.2361 60.4062 29.2361 Q60.9844 29.2361 61.3984 28.9314 Q61.8125 28.6267 62.0469 27.9704 ZM58.5938 26.2673 L62.0625 26.2673 Q62 25.4704 61.6719 25.0798 Q61.1562 24.4704 60.3594 24.4704 Q59.625 24.4704 59.1328 24.9548 Q58.6406 25.4392 58.5938 26.2673 ZM71.875 29.9704 L71.875 29.0486 Q71.1406 30.1111 69.8906 30.1111 Q69.3438 30.1111 68.8672 29.9001 Q68.3906 29.6892 68.1562 29.3689 Q67.9219 29.0486 67.8281 28.5798 Q67.7656 28.2829 67.7656 27.5954 L67.7656 23.7517 L68.8281 23.7517 L68.8281 27.2048 Q68.8281 28.0173 68.8906 28.3142 Q68.9844 28.7204 69.3047 28.9626 Q69.625 29.2048 70.1094 29.2048 Q70.5781 29.2048 70.9922 28.9626 Q71.4062 28.7204 71.5859 28.2986 Q71.7656 27.8767 71.7656 27.0798 L71.7656 23.7517 L72.8125 23.7517 L72.8125 29.9704 L71.875 29.9704 ZM74.7969 29.9704 L74.7969 23.7517 L75.7344 23.7517 L75.7344 24.6267 Q76.4219 23.6111 77.7188 23.6111 Q78.2812 23.6111 78.7578 23.8142 Q79.2344 24.0173 79.4688 24.3454 Q79.7031 24.6736 79.7969 25.1111 Q79.8438 25.4079 79.8438 26.1423 L79.8438 29.9704 L78.7969 29.9704 L78.7969 26.1892 Q78.7969 25.5329 78.6719 25.2204 Q78.5469 24.9079 78.2344 24.7126 Q77.9219 24.5173 77.5 24.5173 Q76.8281 24.5173 76.3359 24.947 Q75.8438 25.3767 75.8438 26.5642 L75.8438 29.9704 L74.7969 29.9704 ZM85.8281 29.9704 L85.8281 29.1892 Q85.2344 30.1111 84.0938 30.1111 Q83.3438 30.1111 82.7188 29.697 Q82.0938 29.2829 81.75 28.5486 Q81.4062 27.8142 81.4062 26.8611 Q81.4062 25.9392 81.7188 25.1736 Q82.0312 24.4079 82.6562 24.0095 Q83.2812 23.6111 84.0469 23.6111 Q84.6094 23.6111 85.0469 23.8454 Q85.4844 24.0798 85.7656 24.4548 L85.7656 21.3767 L86.8125 21.3767 L86.8125 29.9704 L85.8281 29.9704 ZM82.5 26.8611 Q82.5 28.0642 83 28.6501 Q83.5 29.2361 84.1875 29.2361 Q84.875 29.2361 85.3594 28.6736 Q85.8438 28.1111 85.8438 26.9548 Q85.8438 25.6736 85.3516 25.0798 Q84.8594 24.4861 84.1406 24.4861 Q83.4375 24.4861 82.9688 25.0564 Q82.5 25.6267 82.5 26.8611 ZM89.0938 29.9704 L89.0938 28.7673 L90.2969 28.7673 L90.2969 29.9704 L89.0938 29.9704 ZM92.0938 29.9704 L92.0938 28.7673 L93.2969 28.7673 L93.2969 29.9704 L92.0938 29.9704 ZM95.0938 29.9704 L95.0938 28.7673 L96.2969 28.7673 L96.2969 29.9704 L95.0938 29.9704 Z"
         clip-path="url(#clipPath20)"
         stroke="none"
         id="path302" />
    </g>
    <g
       font-size="11"
       transform="translate(20,410)"
       fill-opacity="1"
       fill="rgb(122,207,245)"
       text-rendering="geometricPrecision"
       font-family="sans-serif"
       stroke="rgb(122,207,245)"
       font-weight="bold"
       stroke-opacity="1"
       id="g304">
      <rect
         x="0"
         width="140"
         height="40"
         y="0"
         clip-path="url(#clipPath21)"
         stroke="none"
         id="rect306" />
    </g>
    <g
       font-size="11"
       stroke-linecap="butt"
       transform="translate(20,410)"
       fill-opacity="1"
       fill="black"
       text-rendering="geometricPrecision"
       font-family="sans-serif"
       stroke-linejoin="round"
       stroke="black"
       font-weight="bold"
       stroke-opacity="1"
       stroke-miterlimit="0"
       id="g308">
      <rect
         fill="none"
         x="0"
         width="140"
         height="40"
         y="0"
         clip-path="url(#clipPath21)"
         id="rect310" />
      <line
         y2="15"
         fill="none"
         x1="0"
         clip-path="url(#clipPath21)"
         x2="140"
         y1="15"
         id="line312" />
    </g>
    <g
       font-size="11"
       transform="translate(20,410)"
       fill-opacity="1"
       fill="black"
       text-rendering="geometricPrecision"
       font-family="sans-serif"
       stroke="black"
       font-weight="bold"
       stroke-opacity="1"
       id="g314">
      <text
         x="11"
         xml:space="preserve"
         y="12"
         clip-path="url(#clipPath23)"
         stroke="none"
         id="text316">MeinResourceHandler</text>
    </g>
    <g
       font-size="11"
       transform="translate(10,590)"
       fill-opacity="1"
       fill="rgb(122,207,245)"
       text-rendering="geometricPrecision"
       font-family="sans-serif"
       stroke="rgb(122,207,245)"
       stroke-opacity="1"
       id="g318">
      <polygon
         points=" 0 0 144 0 159 15 144 15 144 0 159 15 159 39 0 39"
         clip-path="url(#clipPath24)"
         stroke="none"
         id="polygon320" />
    </g>
    <g
       font-size="11"
       stroke-linecap="butt"
       transform="translate(10,590)"
       fill-opacity="1"
       fill="black"
       text-rendering="geometricPrecision"
       font-family="sans-serif"
       stroke-linejoin="round"
       stroke="black"
       stroke-opacity="1"
       stroke-miterlimit="0"
       id="g322">
      <polygon
         fill="none"
         points=" 0 0 144 0 159 15 144 15 144 0 159 15 159 39 0 39"
         clip-path="url(#clipPath24)"
         id="polygon324" />
    </g>
    <g
       font-size="11"
       transform="translate(10,590)"
       fill-opacity="1"
       fill="black"
       text-rendering="geometricPrecision"
       font-family="sans-serif"
       stroke="black"
       stroke-opacity="1"
       id="g326">
      <path
         d="M4.0938 14.9704 L4.0938 13.7673 L5.2969 13.7673 L5.2969 14.9704 L4.0938 14.9704 ZM7.0938 14.9704 L7.0938 13.7673 L8.2969 13.7673 L8.2969 14.9704 L7.0938 14.9704 ZM10.0938 14.9704 L10.0938 13.7673 L11.2969 13.7673 L11.2969 14.9704 L10.0938 14.9704 ZM12.2344 14.9704 L12.2344 13.9079 L16.6406 8.4079 Q17.1094 7.8298 17.5312 7.3923 L12.7344 7.3923 L12.7344 6.3767 L18.8906 6.3767 L18.8906 7.3923 L14.0625 13.3454 L13.5469 13.9548 L19.0312 13.9548 L19.0312 14.9704 L12.2344 14.9704 ZM23.875 14.9704 L23.875 14.0486 Q23.1406 15.1111 21.8906 15.1111 Q21.3438 15.1111 20.8672 14.9001 Q20.3906 14.6892 20.1562 14.3689 Q19.9219 14.0486 19.8281 13.5798 Q19.7656 13.2829 19.7656 12.5954 L19.7656 8.7517 L20.8281 8.7517 L20.8281 12.2048 Q20.8281 13.0173 20.8906 13.3142 Q20.9844 13.7204 21.3047 13.9626 Q21.625 14.2048 22.1094 14.2048 Q22.5781 14.2048 22.9922 13.9626 Q23.4062 13.7204 23.5859 13.2986 Q23.7656 12.8767 23.7656 12.0798 L23.7656 8.7517 L24.8125 8.7517 L24.8125 14.9704 L23.875 14.9704 ZM26.5938 15.4861 L27.625 15.6423 Q27.6875 16.1111 27.9844 16.3298 Q28.375 16.6267 29.0469 16.6267 Q29.7812 16.6267 30.1797 16.3298 Q30.5781 16.0329 30.7188 15.5173 Q30.8125 15.1892 30.7969 14.1579 Q30.1094 14.9704 29.0781 14.9704 Q27.7969 14.9704 27.0938 14.0407 Q26.3906 13.1111 26.3906 11.8298 Q26.3906 10.9392 26.7109 10.1814 Q27.0312 9.4236 27.6406 9.0173 Q28.25 8.6111 29.0781 8.6111 Q30.1875 8.6111 30.9062 9.5017 L30.9062 8.7517 L31.875 8.7517 L31.875 14.1267 Q31.875 15.5798 31.5781 16.1892 Q31.2812 16.7986 30.6406 17.1501 Q30 17.5017 29.0625 17.5017 Q27.9531 17.5017 27.2656 17.0017 Q26.5781 16.5017 26.5938 15.4861 ZM27.4688 11.7517 Q27.4688 12.9704 27.9531 13.5329 Q28.4375 14.0954 29.1719 14.0954 Q29.9062 14.0954 30.3984 13.5329 Q30.8906 12.9704 30.8906 11.7829 Q30.8906 10.6423 30.3828 10.0642 Q29.875 9.4861 29.1562 9.4861 Q28.4531 9.4861 27.9609 10.0564 Q27.4688 10.6267 27.4688 11.7517 ZM33.7812 14.9704 L33.7812 8.7517 L34.7344 8.7517 L34.7344 9.6892 Q35.0938 9.0329 35.3984 8.822 Q35.7031 8.6111 36.0781 8.6111 Q36.6094 8.6111 37.1562 8.9392 L36.7969 9.9236 Q36.4062 9.6892 36.0312 9.6892 Q35.6719 9.6892 35.3984 9.9001 Q35.125 10.1111 35.0156 10.4861 Q34.8281 11.0486 34.8281 11.7048 L34.8281 14.9704 L33.7812 14.9704 ZM37.7969 7.5954 L37.7969 6.3767 L38.8594 6.3767 L38.8594 7.5954 L37.7969 7.5954 ZM37.7969 14.9704 L37.7969 8.7517 L38.8594 8.7517 L38.8594 14.9704 L37.7969 14.9704 ZM41.0469 14.9704 L41.0469 9.5642 L40.1094 9.5642 L40.1094 8.7517 L41.0469 8.7517 L41.0469 8.0798 Q41.0469 7.4548 41.1562 7.1579 Q41.3125 6.7361 41.6953 6.4861 Q42.0781 6.2361 42.7656 6.2361 Q43.2188 6.2361 43.75 6.3454 L43.5938 7.2517 Q43.2656 7.2048 42.9688 7.2048 Q42.4844 7.2048 42.2891 7.4079 Q42.0938 7.6111 42.0938 8.1736 L42.0938 8.7517 L43.3125 8.7517 L43.3125 9.5642 L42.0938 9.5642 L42.0938 14.9704 L41.0469 14.9704 ZM44.0469 14.9704 L44.0469 9.5642 L43.1094 9.5642 L43.1094 8.7517 L44.0469 8.7517 L44.0469 8.0798 Q44.0469 7.4548 44.1562 7.1579 Q44.3125 6.7361 44.6953 6.4861 Q45.0781 6.2361 45.7656 6.2361 Q46.2188 6.2361 46.75 6.3454 L46.5938 7.2517 Q46.2656 7.2048 45.9688 7.2048 Q45.4844 7.2048 45.2891 7.4079 Q45.0938 7.6111 45.0938 8.1736 L45.0938 8.7517 L46.3125 8.7517 L46.3125 9.5642 L45.0938 9.5642 L45.0938 14.9704 L44.0469 14.9704 ZM53.8594 14.2048 Q53.2656 14.7048 52.7266 14.9079 Q52.1875 15.1111 51.5625 15.1111 Q50.5312 15.1111 49.9844 14.6111 Q49.4375 14.1111 49.4375 13.3298 Q49.4375 12.8767 49.6406 12.4939 Q49.8438 12.1111 50.1875 11.8845 Q50.5312 11.6579 50.9531 11.5486 Q51.25 11.4548 51.8906 11.3767 Q53.1562 11.2361 53.7656 11.0173 Q53.7656 10.7986 53.7656 10.7517 Q53.7656 10.0954 53.4688 9.8298 Q53.0625 9.4861 52.2656 9.4861 Q51.5312 9.4861 51.1719 9.7439 Q50.8125 10.0017 50.6406 10.6579 L49.6094 10.5173 Q49.75 9.8611 50.0781 9.4548 Q50.4062 9.0486 51.0156 8.8298 Q51.625 8.6111 52.4219 8.6111 Q53.2188 8.6111 53.7188 8.7986 Q54.2188 8.9861 54.4531 9.2673 Q54.6875 9.5486 54.7812 9.9861 Q54.8281 10.2517 54.8281 10.9548 L54.8281 12.3611 Q54.8281 13.8298 54.8984 14.2204 Q54.9688 14.6111 55.1719 14.9704 L54.0625 14.9704 Q53.9062 14.6423 53.8594 14.2048 ZM53.7656 11.8454 Q53.1875 12.0798 52.0469 12.2517 Q51.3906 12.3454 51.125 12.4626 Q50.8594 12.5798 50.7109 12.7986 Q50.5625 13.0173 50.5625 13.2986 Q50.5625 13.7204 50.8828 14.0017 Q51.2031 14.2829 51.8125 14.2829 Q52.4219 14.2829 52.8984 14.0173 Q53.375 13.7517 53.5938 13.2829 Q53.7656 12.9236 53.7656 12.2361 L53.7656 11.8454 ZM60.875 14.9704 L60.875 14.0486 Q60.1406 15.1111 58.8906 15.1111 Q58.3438 15.1111 57.8672 14.9001 Q57.3906 14.6892 57.1562 14.3689 Q56.9219 14.0486 56.8281 13.5798 Q56.7656 13.2829 56.7656 12.5954 L56.7656 8.7517 L57.8281 8.7517 L57.8281 12.2048 Q57.8281 13.0173 57.8906 13.3142 Q57.9844 13.7204 58.3047 13.9626 Q58.625 14.2048 59.1094 14.2048 Q59.5781 14.2048 59.9922 13.9626 Q60.4062 13.7204 60.5859 13.2986 Q60.7656 12.8767 60.7656 12.0798 L60.7656 8.7517 L61.8125 8.7517 L61.8125 14.9704 L60.875 14.9704 ZM64.0469 14.9704 L64.0469 9.5642 L63.1094 9.5642 L63.1094 8.7517 L64.0469 8.7517 L64.0469 8.0798 Q64.0469 7.4548 64.1562 7.1579 Q64.3125 6.7361 64.6953 6.4861 Q65.0781 6.2361 65.7656 6.2361 Q66.2188 6.2361 66.75 6.3454 L66.5938 7.2517 Q66.2656 7.2048 65.9688 7.2048 Q65.4844 7.2048 65.2891 7.4079 Q65.0938 7.6111 65.0938 8.1736 L65.0938 8.7517 L66.3125 8.7517 L66.3125 9.5642 L65.0938 9.5642 L65.0938 14.9704 L64.0469 14.9704 ZM69.9375 14.9704 L69.9375 6.3767 L73.75 6.3767 Q74.9062 6.3767 75.5 6.6111 Q76.0938 6.8454 76.4531 7.4314 Q76.8125 8.0173 76.8125 8.7204 Q76.8125 9.6423 76.2188 10.2673 Q75.625 10.8923 74.3906 11.0642 Q74.8438 11.2829 75.0781 11.4861 Q75.5781 11.9392 76.0156 12.6267 L77.5156 14.9704 L76.0781 14.9704 L74.9531 13.1892 Q74.4531 12.4079 74.1328 12.0017 Q73.8125 11.5954 73.5547 11.4314 Q73.2969 11.2673 73.0312 11.1892 Q72.8438 11.1579 72.4062 11.1579 L71.0781 11.1579 L71.0781 14.9704 L69.9375 14.9704 ZM71.0781 10.1736 L73.5312 10.1736 Q74.2969 10.1736 74.7422 10.0095 Q75.1875 9.8454 75.4141 9.4939 Q75.6406 9.1423 75.6406 8.7204 Q75.6406 8.1111 75.1953 7.7204 Q74.75 7.3298 73.7969 7.3298 L71.0781 7.3298 L71.0781 10.1736 ZM83.0469 12.9704 L84.1406 13.0954 Q83.8906 14.0486 83.1875 14.5798 Q82.4844 15.1111 81.4062 15.1111 Q80.0469 15.1111 79.2422 14.2673 Q78.4375 13.4236 78.4375 11.9079 Q78.4375 10.3454 79.25 9.4782 Q80.0625 8.6111 81.3438 8.6111 Q82.5938 8.6111 83.3828 9.4548 Q84.1719 10.2986 84.1719 11.8454 Q84.1719 11.9392 84.1719 12.1267 L79.5312 12.1267 Q79.5938 13.1579 80.1094 13.697 Q80.625 14.2361 81.4062 14.2361 Q81.9844 14.2361 82.3984 13.9314 Q82.8125 13.6267 83.0469 12.9704 ZM79.5938 11.2673 L83.0625 11.2673 Q83 10.4704 82.6719 10.0798 Q82.1562 9.4704 81.3594 9.4704 Q80.625 9.4704 80.1328 9.9548 Q79.6406 10.4392 79.5938 11.2673 ZM85.375 13.1111 L86.4062 12.9548 Q86.5 13.5798 86.8984 13.9079 Q87.2969 14.2361 88.0312 14.2361 Q88.75 14.2361 89.1016 13.947 Q89.4531 13.6579 89.4531 13.2517 Q89.4531 12.8923 89.1406 12.6892 Q88.9219 12.5486 88.0625 12.3298 Q86.9062 12.0329 86.4609 11.822 Q86.0156 11.6111 85.7812 11.2361 Q85.5469 10.8611 85.5469 10.3923 Q85.5469 9.9861 85.7344 9.6267 Q85.9219 9.2673 86.25 9.0329 Q86.5 8.8611 86.9219 8.7361 Q87.3438 8.6111 87.8438 8.6111 Q88.5625 8.6111 89.1172 8.822 Q89.6719 9.0329 89.9375 9.3923 Q90.2031 9.7517 90.2969 10.3454 L89.2656 10.4861 Q89.2031 10.0173 88.8672 9.7439 Q88.5312 9.4704 87.9062 9.4704 Q87.1875 9.4704 86.875 9.7126 Q86.5625 9.9548 86.5625 10.2829 Q86.5625 10.4861 86.6875 10.6423 Q86.8281 10.8142 87.0938 10.9236 Q87.25 10.9861 88.0312 11.1892 Q89.1562 11.5017 89.5938 11.6892 Q90.0312 11.8767 90.2812 12.2361 Q90.5312 12.5954 90.5312 13.1423 Q90.5312 13.6736 90.2266 14.1345 Q89.9219 14.5954 89.3438 14.8532 Q88.7656 15.1111 88.0312 15.1111 Q86.8125 15.1111 86.1797 14.6032 Q85.5469 14.0954 85.375 13.1111 ZM92.375 13.1111 L93.4062 12.9548 Q93.5 13.5798 93.8984 13.9079 Q94.2969 14.2361 95.0312 14.2361 Q95.75 14.2361 96.1016 13.947 Q96.4531 13.6579 96.4531 13.2517 Q96.4531 12.8923 96.1406 12.6892 Q95.9219 12.5486 95.0625 12.3298 Q93.9062 12.0329 93.4609 11.822 Q93.0156 11.6111 92.7812 11.2361 Q92.5469 10.8611 92.5469 10.3923 Q92.5469 9.9861 92.7344 9.6267 Q92.9219 9.2673 93.25 9.0329 Q93.5 8.8611 93.9219 8.7361 Q94.3438 8.6111 94.8438 8.6111 Q95.5625 8.6111 96.1172 8.822 Q96.6719 9.0329 96.9375 9.3923 Q97.2031 9.7517 97.2969 10.3454 L96.2656 10.4861 Q96.2031 10.0173 95.8672 9.7439 Q95.5312 9.4704 94.9062 9.4704 Q94.1875 9.4704 93.875 9.7126 Q93.5625 9.9548 93.5625 10.2829 Q93.5625 10.4861 93.6875 10.6423 Q93.8281 10.8142 94.0938 10.9236 Q94.25 10.9861 95.0312 11.1892 Q96.1562 11.5017 96.5938 11.6892 Q97.0312 11.8767 97.2812 12.2361 Q97.5312 12.5954 97.5312 13.1423 Q97.5312 13.6736 97.2266 14.1345 Q96.9219 14.5954 96.3438 14.8532 Q95.7656 15.1111 95.0312 15.1111 Q93.8125 15.1111 93.1797 14.6032 Q92.5469 14.0954 92.375 13.1111 ZM99.4062 11.8611 Q99.4062 10.1267 100.3594 9.2986 Q101.1562 8.6111 102.3125 8.6111 Q103.5938 8.6111 104.4141 9.447 Q105.2344 10.2829 105.2344 11.7673 Q105.2344 12.9704 104.875 13.6579 Q104.5156 14.3454 103.8203 14.7282 Q103.125 15.1111 102.3125 15.1111 Q101.0156 15.1111 100.2109 14.2751 Q99.4062 13.4392 99.4062 11.8611 ZM100.4844 11.8611 Q100.4844 13.0486 101.0078 13.6423 Q101.5312 14.2361 102.3125 14.2361 Q103.1094 14.2361 103.625 13.6423 Q104.1406 13.0486 104.1406 11.8298 Q104.1406 10.6736 103.6172 10.0798 Q103.0938 9.4861 102.3125 9.4861 Q101.5312 9.4861 101.0078 10.072 Q100.4844 10.6579 100.4844 11.8611 ZM110.875 14.9704 L110.875 14.0486 Q110.1406 15.1111 108.8906 15.1111 Q108.3438 15.1111 107.8672 14.9001 Q107.3906 14.6892 107.1562 14.3689 Q106.9219 14.0486 106.8281 13.5798 Q106.7656 13.2829 106.7656 12.5954 L106.7656 8.7517 L107.8281 8.7517 L107.8281 12.2048 Q107.8281 13.0173 107.8906 13.3142 Q107.9844 13.7204 108.3047 13.9626 Q108.625 14.2048 109.1094 14.2048 Q109.5781 14.2048 109.9922 13.9626 Q110.4062 13.7204 110.5859 13.2986 Q110.7656 12.8767 110.7656 12.0798 L110.7656 8.7517 L111.8125 8.7517 L111.8125 14.9704 L110.875 14.9704 ZM113.7812 14.9704 L113.7812 8.7517 L114.7344 8.7517 L114.7344 9.6892 Q115.0938 9.0329 115.3984 8.822 Q115.7031 8.6111 116.0781 8.6111 Q116.6094 8.6111 117.1562 8.9392 L116.7969 9.9236 Q116.4062 9.6892 116.0312 9.6892 Q115.6719 9.6892 115.3984 9.9001 Q115.125 10.1111 115.0156 10.4861 Q114.8281 11.0486 114.8281 11.7048 L114.8281 14.9704 L113.7812 14.9704 ZM121.8594 12.6892 L122.8906 12.8298 Q122.7188 13.8923 122.0156 14.5017 Q121.3125 15.1111 120.2969 15.1111 Q119.0156 15.1111 118.2422 14.2751 Q117.4688 13.4392 117.4688 11.8767 Q117.4688 10.8767 117.8047 10.1189 Q118.1406 9.3611 118.8203 8.9861 Q119.5 8.6111 120.3125 8.6111 Q121.3125 8.6111 121.9609 9.1189 Q122.6094 9.6267 122.7969 10.5798 L121.7656 10.7361 Q121.625 10.1111 121.25 9.7907 Q120.875 9.4704 120.3438 9.4704 Q119.5469 9.4704 119.0469 10.0407 Q118.5469 10.6111 118.5469 11.8454 Q118.5469 13.1111 119.0312 13.6736 Q119.5156 14.2361 120.2812 14.2361 Q120.9062 14.2361 121.3203 13.8611 Q121.7344 13.4861 121.8594 12.6892 ZM128.0469 12.9704 L129.1406 13.0954 Q128.8906 14.0486 128.1875 14.5798 Q127.4844 15.1111 126.4062 15.1111 Q125.0469 15.1111 124.2422 14.2673 Q123.4375 13.4236 123.4375 11.9079 Q123.4375 10.3454 124.25 9.4782 Q125.0625 8.6111 126.3438 8.6111 Q127.5938 8.6111 128.3828 9.4548 Q129.1719 10.2986 129.1719 11.8454 Q129.1719 11.9392 129.1719 12.1267 L124.5312 12.1267 Q124.5938 13.1579 125.1094 13.697 Q125.625 14.2361 126.4062 14.2361 Q126.9844 14.2361 127.3984 13.9314 Q127.8125 13.6267 128.0469 12.9704 ZM124.5938 11.2673 L128.0625 11.2673 Q128 10.4704 127.6719 10.0798 Q127.1562 9.4704 126.3594 9.4704 Q125.625 9.4704 125.1328 9.9548 Q124.6406 10.4392 124.5938 11.2673 Z"
         clip-path="url(#clipPath25)"
         stroke="none"
         id="path328" />
      <path
         d="M3.7969 22.5954 L3.7969 21.3767 L4.8594 21.3767 L4.8594 22.5954 L3.7969 22.5954 ZM3.7969 29.9704 L3.7969 23.7517 L4.8594 23.7517 L4.8594 29.9704 L3.7969 29.9704 ZM6.7969 29.9704 L6.7969 23.7517 L7.7344 23.7517 L7.7344 24.6267 Q8.4219 23.6111 9.7188 23.6111 Q10.2812 23.6111 10.7578 23.8142 Q11.2344 24.0173 11.4688 24.3454 Q11.7031 24.6736 11.7969 25.1111 Q11.8438 25.4079 11.8438 26.1423 L11.8438 29.9704 L10.7969 29.9704 L10.7969 26.1892 Q10.7969 25.5329 10.6719 25.2204 Q10.5469 24.9079 10.2344 24.7126 Q9.9219 24.5173 9.5 24.5173 Q8.8281 24.5173 8.3359 24.947 Q7.8438 25.3767 7.8438 26.5642 L7.8438 29.9704 L6.7969 29.9704 ZM13.7969 29.9704 L13.7969 23.7517 L14.7344 23.7517 L14.7344 24.6267 Q15.4219 23.6111 16.7188 23.6111 Q17.2812 23.6111 17.7578 23.8142 Q18.2344 24.0173 18.4688 24.3454 Q18.7031 24.6736 18.7969 25.1111 Q18.8438 25.4079 18.8438 26.1423 L18.8438 29.9704 L17.7969 29.9704 L17.7969 26.1892 Q17.7969 25.5329 17.6719 25.2204 Q17.5469 24.9079 17.2344 24.7126 Q16.9219 24.5173 16.5 24.5173 Q15.8281 24.5173 15.3359 24.947 Q14.8438 25.3767 14.8438 26.5642 L14.8438 29.9704 L13.7969 29.9704 ZM25.0469 27.9704 L26.1406 28.0954 Q25.8906 29.0486 25.1875 29.5798 Q24.4844 30.1111 23.4062 30.1111 Q22.0469 30.1111 21.2422 29.2673 Q20.4375 28.4236 20.4375 26.9079 Q20.4375 25.3454 21.25 24.4782 Q22.0625 23.6111 23.3438 23.6111 Q24.5938 23.6111 25.3828 24.4548 Q26.1719 25.2986 26.1719 26.8454 Q26.1719 26.9392 26.1719 27.1267 L21.5312 27.1267 Q21.5938 28.1579 22.1094 28.697 Q22.625 29.2361 23.4062 29.2361 Q23.9844 29.2361 24.3984 28.9314 Q24.8125 28.6267 25.0469 27.9704 ZM21.5938 26.2673 L25.0625 26.2673 Q25 25.4704 24.6719 25.0798 Q24.1562 24.4704 23.3594 24.4704 Q22.625 24.4704 22.1328 24.9548 Q21.6406 25.4392 21.5938 26.2673 ZM27.7812 29.9704 L27.7812 23.7517 L28.7344 23.7517 L28.7344 24.6892 Q29.0938 24.0329 29.3984 23.822 Q29.7031 23.6111 30.0781 23.6111 Q30.6094 23.6111 31.1562 23.9392 L30.7969 24.9236 Q30.4062 24.6892 30.0312 24.6892 Q29.6719 24.6892 29.3984 24.9001 Q29.125 25.1111 29.0156 25.4861 Q28.8281 26.0486 28.8281 26.7048 L28.8281 29.9704 L27.7812 29.9704 ZM31.7969 29.9704 L31.7969 21.3767 L32.8438 21.3767 L32.8438 24.4548 Q33.5781 23.6111 34.7031 23.6111 Q35.4062 23.6111 35.9141 23.8845 Q36.4219 24.1579 36.6406 24.6345 Q36.8594 25.1111 36.8594 26.0329 L36.8594 29.9704 L35.8125 29.9704 L35.8125 26.0329 Q35.8125 25.2361 35.4688 24.8767 Q35.125 24.5173 34.5 24.5173 Q34.0312 24.5173 33.6172 24.7595 Q33.2031 25.0017 33.0234 25.4157 Q32.8438 25.8298 32.8438 26.5642 L32.8438 29.9704 L31.7969 29.9704 ZM42.8594 29.2048 Q42.2656 29.7048 41.7266 29.9079 Q41.1875 30.1111 40.5625 30.1111 Q39.5312 30.1111 38.9844 29.6111 Q38.4375 29.1111 38.4375 28.3298 Q38.4375 27.8767 38.6406 27.4939 Q38.8438 27.1111 39.1875 26.8845 Q39.5312 26.6579 39.9531 26.5486 Q40.25 26.4548 40.8906 26.3767 Q42.1562 26.2361 42.7656 26.0173 Q42.7656 25.7986 42.7656 25.7517 Q42.7656 25.0954 42.4688 24.8298 Q42.0625 24.4861 41.2656 24.4861 Q40.5312 24.4861 40.1719 24.7439 Q39.8125 25.0017 39.6406 25.6579 L38.6094 25.5173 Q38.75 24.8611 39.0781 24.4548 Q39.4062 24.0486 40.0156 23.8298 Q40.625 23.6111 41.4219 23.6111 Q42.2188 23.6111 42.7188 23.7986 Q43.2188 23.9861 43.4531 24.2673 Q43.6875 24.5486 43.7812 24.9861 Q43.8281 25.2517 43.8281 25.9548 L43.8281 27.3611 Q43.8281 28.8298 43.8984 29.2204 Q43.9688 29.6111 44.1719 29.9704 L43.0625 29.9704 Q42.9062 29.6423 42.8594 29.2048 ZM42.7656 26.8454 Q42.1875 27.0798 41.0469 27.2517 Q40.3906 27.3454 40.125 27.4626 Q39.8594 27.5798 39.7109 27.7986 Q39.5625 28.0173 39.5625 28.2986 Q39.5625 28.7204 39.8828 29.0017 Q40.2031 29.2829 40.8125 29.2829 Q41.4219 29.2829 41.8984 29.0173 Q42.375 28.7517 42.5938 28.2829 Q42.7656 27.9236 42.7656 27.2361 L42.7656 26.8454 ZM45.7656 29.9704 L45.7656 21.3767 L46.8281 21.3767 L46.8281 29.9704 L45.7656 29.9704 ZM49.7656 29.9704 L48.7812 29.9704 L48.7812 21.3767 L49.8438 21.3767 L49.8438 24.4392 Q50.5156 23.6111 51.5469 23.6111 Q52.125 23.6111 52.6328 23.8376 Q53.1406 24.0642 53.4766 24.4861 Q53.8125 24.9079 54 25.5017 Q54.1875 26.0954 54.1875 26.7673 Q54.1875 28.3611 53.3906 29.2361 Q52.5938 30.1111 51.5 30.1111 Q50.3906 30.1111 49.7656 29.1892 L49.7656 29.9704 ZM49.75 26.8142 Q49.75 27.9236 50.0625 28.4236 Q50.5625 29.2361 51.4062 29.2361 Q52.0938 29.2361 52.6016 28.6423 Q53.1094 28.0486 53.1094 26.8454 Q53.1094 25.6267 52.625 25.0486 Q52.1406 24.4704 51.4531 24.4704 Q50.7656 24.4704 50.2578 25.072 Q49.75 25.6736 49.75 26.8142 ZM62.8281 29.9704 L62.8281 29.1892 Q62.2344 30.1111 61.0938 30.1111 Q60.3438 30.1111 59.7188 29.697 Q59.0938 29.2829 58.75 28.5486 Q58.4062 27.8142 58.4062 26.8611 Q58.4062 25.9392 58.7188 25.1736 Q59.0312 24.4079 59.6562 24.0095 Q60.2812 23.6111 61.0469 23.6111 Q61.6094 23.6111 62.0469 23.8454 Q62.4844 24.0798 62.7656 24.4548 L62.7656 21.3767 L63.8125 21.3767 L63.8125 29.9704 L62.8281 29.9704 ZM59.5 26.8611 Q59.5 28.0642 60 28.6501 Q60.5 29.2361 61.1875 29.2361 Q61.875 29.2361 62.3594 28.6736 Q62.8438 28.1111 62.8438 26.9548 Q62.8438 25.6736 62.3516 25.0798 Q61.8594 24.4861 61.1406 24.4861 Q60.4375 24.4861 59.9688 25.0564 Q59.5 25.6267 59.5 26.8611 ZM70.0469 27.9704 L71.1406 28.0954 Q70.8906 29.0486 70.1875 29.5798 Q69.4844 30.1111 68.4062 30.1111 Q67.0469 30.1111 66.2422 29.2673 Q65.4375 28.4236 65.4375 26.9079 Q65.4375 25.3454 66.25 24.4782 Q67.0625 23.6111 68.3438 23.6111 Q69.5938 23.6111 70.3828 24.4548 Q71.1719 25.2986 71.1719 26.8454 Q71.1719 26.9392 71.1719 27.1267 L66.5312 27.1267 Q66.5938 28.1579 67.1094 28.697 Q67.625 29.2361 68.4062 29.2361 Q68.9844 29.2361 69.3984 28.9314 Q69.8125 28.6267 70.0469 27.9704 ZM66.5938 26.2673 L70.0625 26.2673 Q70 25.4704 69.6719 25.0798 Q69.1562 24.4704 68.3594 24.4704 Q67.625 24.4704 67.1328 24.9548 Q66.6406 25.4392 66.5938 26.2673 ZM72.375 28.1111 L73.4062 27.9548 Q73.5 28.5798 73.8984 28.9079 Q74.2969 29.2361 75.0312 29.2361 Q75.75 29.2361 76.1016 28.947 Q76.4531 28.6579 76.4531 28.2517 Q76.4531 27.8923 76.1406 27.6892 Q75.9219 27.5486 75.0625 27.3298 Q73.9062 27.0329 73.4609 26.822 Q73.0156 26.6111 72.7812 26.2361 Q72.5469 25.8611 72.5469 25.3923 Q72.5469 24.9861 72.7344 24.6267 Q72.9219 24.2673 73.25 24.0329 Q73.5 23.8611 73.9219 23.7361 Q74.3438 23.6111 74.8438 23.6111 Q75.5625 23.6111 76.1172 23.822 Q76.6719 24.0329 76.9375 24.3923 Q77.2031 24.7517 77.2969 25.3454 L76.2656 25.4861 Q76.2031 25.0173 75.8672 24.7439 Q75.5312 24.4704 74.9062 24.4704 Q74.1875 24.4704 73.875 24.7126 Q73.5625 24.9548 73.5625 25.2829 Q73.5625 25.4861 73.6875 25.6423 Q73.8281 25.8142 74.0938 25.9236 Q74.25 25.9861 75.0312 26.1892 Q76.1562 26.5017 76.5938 26.6892 Q77.0312 26.8767 77.2812 27.2361 Q77.5312 27.5954 77.5312 28.1423 Q77.5312 28.6736 77.2266 29.1345 Q76.9219 29.5954 76.3438 29.8532 Q75.7656 30.1111 75.0312 30.1111 Q73.8125 30.1111 73.1797 29.6032 Q72.5469 29.0954 72.375 28.1111 ZM82.9688 29.9704 L82.9688 21.3767 L84.0938 21.3767 L84.0938 24.9079 L88.5625 24.9079 L88.5625 21.3767 L89.7031 21.3767 L89.7031 29.9704 L88.5625 29.9704 L88.5625 25.9236 L84.0938 25.9236 L84.0938 29.9704 L82.9688 29.9704 ZM95.8594 29.2048 Q95.2656 29.7048 94.7266 29.9079 Q94.1875 30.1111 93.5625 30.1111 Q92.5312 30.1111 91.9844 29.6111 Q91.4375 29.1111 91.4375 28.3298 Q91.4375 27.8767 91.6406 27.4939 Q91.8438 27.1111 92.1875 26.8845 Q92.5312 26.6579 92.9531 26.5486 Q93.25 26.4548 93.8906 26.3767 Q95.1562 26.2361 95.7656 26.0173 Q95.7656 25.7986 95.7656 25.7517 Q95.7656 25.0954 95.4688 24.8298 Q95.0625 24.4861 94.2656 24.4861 Q93.5312 24.4861 93.1719 24.7439 Q92.8125 25.0017 92.6406 25.6579 L91.6094 25.5173 Q91.75 24.8611 92.0781 24.4548 Q92.4062 24.0486 93.0156 23.8298 Q93.625 23.6111 94.4219 23.6111 Q95.2188 23.6111 95.7188 23.7986 Q96.2188 23.9861 96.4531 24.2673 Q96.6875 24.5486 96.7812 24.9861 Q96.8281 25.2517 96.8281 25.9548 L96.8281 27.3611 Q96.8281 28.8298 96.8984 29.2204 Q96.9688 29.6111 97.1719 29.9704 L96.0625 29.9704 Q95.9062 29.6423 95.8594 29.2048 ZM95.7656 26.8454 Q95.1875 27.0798 94.0469 27.2517 Q93.3906 27.3454 93.125 27.4626 Q92.8594 27.5798 92.7109 27.7986 Q92.5625 28.0173 92.5625 28.2986 Q92.5625 28.7204 92.8828 29.0017 Q93.2031 29.2829 93.8125 29.2829 Q94.4219 29.2829 94.8984 29.0173 Q95.375 28.7517 95.5938 28.2829 Q95.7656 27.9236 95.7656 27.2361 L95.7656 26.8454 ZM98.7969 29.9704 L98.7969 23.7517 L99.7344 23.7517 L99.7344 24.6267 Q100.4219 23.6111 101.7188 23.6111 Q102.2812 23.6111 102.7578 23.8142 Q103.2344 24.0173 103.4688 24.3454 Q103.7031 24.6736 103.7969 25.1111 Q103.8438 25.4079 103.8438 26.1423 L103.8438 29.9704 L102.7969 29.9704 L102.7969 26.1892 Q102.7969 25.5329 102.6719 25.2204 Q102.5469 24.9079 102.2344 24.7126 Q101.9219 24.5173 101.5 24.5173 Q100.8281 24.5173 100.3359 24.947 Q99.8438 25.3767 99.8438 26.5642 L99.8438 29.9704 L98.7969 29.9704 ZM109.8281 29.9704 L109.8281 29.1892 Q109.2344 30.1111 108.0938 30.1111 Q107.3438 30.1111 106.7188 29.697 Q106.0938 29.2829 105.75 28.5486 Q105.4062 27.8142 105.4062 26.8611 Q105.4062 25.9392 105.7188 25.1736 Q106.0312 24.4079 106.6562 24.0095 Q107.2812 23.6111 108.0469 23.6111 Q108.6094 23.6111 109.0469 23.8454 Q109.4844 24.0798 109.7656 24.4548 L109.7656 21.3767 L110.8125 21.3767 L110.8125 29.9704 L109.8281 29.9704 ZM106.5 26.8611 Q106.5 28.0642 107 28.6501 Q107.5 29.2361 108.1875 29.2361 Q108.875 29.2361 109.3594 28.6736 Q109.8438 28.1111 109.8438 26.9548 Q109.8438 25.6736 109.3516 25.0798 Q108.8594 24.4861 108.1406 24.4861 Q107.4375 24.4861 106.9688 25.0564 Q106.5 25.6267 106.5 26.8611 ZM112.7656 29.9704 L112.7656 21.3767 L113.8281 21.3767 L113.8281 29.9704 L112.7656 29.9704 ZM120.0469 27.9704 L121.1406 28.0954 Q120.8906 29.0486 120.1875 29.5798 Q119.4844 30.1111 118.4062 30.1111 Q117.0469 30.1111 116.2422 29.2673 Q115.4375 28.4236 115.4375 26.9079 Q115.4375 25.3454 116.25 24.4782 Q117.0625 23.6111 118.3438 23.6111 Q119.5938 23.6111 120.3828 24.4548 Q121.1719 25.2986 121.1719 26.8454 Q121.1719 26.9392 121.1719 27.1267 L116.5312 27.1267 Q116.5938 28.1579 117.1094 28.697 Q117.625 29.2361 118.4062 29.2361 Q118.9844 29.2361 119.3984 28.9314 Q119.8125 28.6267 120.0469 27.9704 ZM116.5938 26.2673 L120.0625 26.2673 Q120 25.4704 119.6719 25.0798 Q119.1562 24.4704 118.3594 24.4704 Q117.625 24.4704 117.1328 24.9548 Q116.6406 25.4392 116.5938 26.2673 ZM122.7812 29.9704 L122.7812 23.7517 L123.7344 23.7517 L123.7344 24.6892 Q124.0938 24.0329 124.3984 23.822 Q124.7031 23.6111 125.0781 23.6111 Q125.6094 23.6111 126.1562 23.9392 L125.7969 24.9236 Q125.4062 24.6892 125.0312 24.6892 Q124.6719 24.6892 124.3984 24.9001 Q124.125 25.1111 124.0156 25.4861 Q123.8281 26.0486 123.8281 26.7048 L123.8281 29.9704 L122.7812 29.9704 ZM126.375 28.1111 L127.4062 27.9548 Q127.5 28.5798 127.8984 28.9079 Q128.2969 29.2361 129.0312 29.2361 Q129.75 29.2361 130.1016 28.947 Q130.4531 28.6579 130.4531 28.2517 Q130.4531 27.8923 130.1406 27.6892 Q129.9219 27.5486 129.0625 27.3298 Q127.9062 27.0329 127.4609 26.822 Q127.0156 26.6111 126.7812 26.2361 Q126.5469 25.8611 126.5469 25.3923 Q126.5469 24.9861 126.7344 24.6267 Q126.9219 24.2673 127.25 24.0329 Q127.5 23.8611 127.9219 23.7361 Q128.3438 23.6111 128.8438 23.6111 Q129.5625 23.6111 130.1172 23.822 Q130.6719 24.0329 130.9375 24.3923 Q131.2031 24.7517 131.2969 25.3454 L130.2656 25.4861 Q130.2031 25.0173 129.8672 24.7439 Q129.5312 24.4704 128.9062 24.4704 Q128.1875 24.4704 127.875 24.7126 Q127.5625 24.9548 127.5625 25.2829 Q127.5625 25.4861 127.6875 25.6423 Q127.8281 25.8142 128.0938 25.9236 Q128.25 25.9861 129.0312 26.1892 Q130.1562 26.5017 130.5938 26.6892 Q131.0312 26.8767 131.2812 27.2361 Q131.5312 27.5954 131.5312 28.1423 Q131.5312 28.6736 131.2266 29.1345 Q130.9219 29.5954 130.3438 29.8532 Q129.7656 30.1111 129.0312 30.1111 Q127.8125 30.1111 127.1797 29.6032 Q126.5469 29.0954 126.375 28.1111 Z"
         clip-path="url(#clipPath25)"
         stroke="none"
         id="path330" />
    </g>
    <g
       font-size="11"
       stroke-linecap="butt"
       transform="translate(830,440)"
       fill-opacity="1"
       fill="black"
       text-rendering="geometricPrecision"
       font-family="sans-serif"
       stroke-linejoin="round"
       stroke="black"
       stroke-opacity="1"
       id="g332">
      <line
         y2="50"
         fill="none"
         x1="50"
         clip-path="url(#clipPath26)"
         x2="50"
         y1="129"
         id="line334" />
      <line
         y2="115"
         fill="none"
         x1="56"
         clip-path="url(#clipPath26)"
         x2="44"
         y1="124"
         id="line336" />
      <line
         y2="115"
         fill="none"
         x1="44"
         clip-path="url(#clipPath26)"
         x2="56"
         y1="124"
         id="line338" />
      <line
         y2="62"
         fill="none"
         x1="50"
         clip-path="url(#clipPath26)"
         x2="44"
         y1="50"
         id="line340" />
      <line
         y2="62"
         fill="none"
         x1="50"
         clip-path="url(#clipPath26)"
         x2="56"
         y1="50"
         id="line342" />
    </g>
    <g
       font-size="11"
       stroke-linecap="butt"
       transform="translate(880,440)"
       fill-opacity="1"
       fill="black"
       text-rendering="geometricPrecision"
       font-family="sans-serif"
       stroke-linejoin="round"
       stroke="black"
       stroke-opacity="1"
       id="g344">
      <line
         y2="129"
         fill="none"
         x1="50"
         clip-path="url(#clipPath26)"
         x2="50"
         y1="50"
         id="line346" />
      <polygon
         fill="white"
         clip-path="url(#clipPath26)"
         points=" 50 50 44 62 56 62"
         stroke="none"
         id="polygon348" />
      <polygon
         fill="none"
         points=" 50 50 44 62 56 62"
         clip-path="url(#clipPath26)"
         id="polygon350" />
    </g>
    <g
       font-size="11"
       stroke-linecap="butt"
       transform="translate(40,300)"
       fill-opacity="1"
       fill="black"
       text-rendering="geometricPrecision"
       font-family="sans-serif"
       stroke-linejoin="round"
       stroke="black"
       stroke-opacity="1"
       id="g352">
      <line
         y2="109"
         fill="none"
         x1="50"
         clip-path="url(#clipPath27)"
         x2="50"
         y1="50"
         id="line354" />
      <line
         y2="63"
         fill="none"
         x1="44"
         clip-path="url(#clipPath27)"
         x2="56"
         y1="54"
         id="line356" />
      <line
         y2="63"
         fill="none"
         x1="56"
         clip-path="url(#clipPath27)"
         x2="44"
         y1="54"
         id="line358" />
      <line
         y2="97"
         fill="none"
         x1="50"
         clip-path="url(#clipPath27)"
         x2="56"
         y1="109"
         id="line360" />
      <line
         y2="97"
         fill="none"
         x1="50"
         clip-path="url(#clipPath27)"
         x2="44"
         y1="109"
         id="line362" />
    </g>
    <g
       font-size="11"
       stroke-linecap="butt"
       transform="translate(110,280)"
       fill-opacity="1"
       fill="black"
       text-rendering="geometricPrecision"
       font-family="sans-serif"
       stroke-linejoin="round"
       stroke="black"
       stroke-opacity="1"
       id="g364">
      <line
         y2="50"
         fill="none"
         x1="50"
         clip-path="url(#clipPath28)"
         x2="100"
         y1="50"
         id="line366" />
      <line
         y2="290"
         fill="none"
         x1="100"
         clip-path="url(#clipPath28)"
         x2="100"
         y1="50"
         id="line368" />
      <line
         y2="290"
         fill="none"
         x1="100"
         clip-path="url(#clipPath28)"
         x2="129"
         y1="290"
         id="line370" />
      <line
         y2="44"
         fill="none"
         x1="54"
         clip-path="url(#clipPath28)"
         x2="63"
         y1="56"
         id="line372" />
      <line
         y2="56"
         fill="none"
         x1="54"
         clip-path="url(#clipPath28)"
         x2="63"
         y1="44"
         id="line374" />
      <line
         y2="284"
         fill="none"
         x1="129"
         clip-path="url(#clipPath28)"
         x2="117"
         y1="290"
         id="line376" />
      <line
         y2="296"
         fill="none"
         x1="129"
         clip-path="url(#clipPath28)"
         x2="117"
         y1="290"
         id="line378" />
    </g>
    <g
       font-size="11"
       stroke-linecap="butt"
       transform="translate(110,260)"
       fill-opacity="1"
       fill="black"
       text-rendering="geometricPrecision"
       font-family="sans-serif"
       stroke-linejoin="round"
       stroke="black"
       stroke-opacity="1"
       id="g380">
      <line
         y2="50"
         fill="none"
         x1="50"
         clip-path="url(#clipPath29)"
         x2="129"
         y1="50"
         id="line382" />
      <line
         y2="44"
         fill="none"
         x1="54"
         clip-path="url(#clipPath29)"
         x2="63"
         y1="56"
         id="line384" />
      <line
         y2="56"
         fill="none"
         x1="54"
         clip-path="url(#clipPath29)"
         x2="63"
         y1="44"
         id="line386" />
      <line
         y2="44"
         fill="none"
         x1="129"
         clip-path="url(#clipPath29)"
         x2="117"
         y1="50"
         id="line388" />
      <line
         y2="56"
         fill="none"
         x1="129"
         clip-path="url(#clipPath29)"
         x2="117"
         y1="50"
         id="line390" />
    </g>
    <g
       font-size="11"
       stroke-linecap="butt"
       transform="translate(40,400)"
       fill-opacity="1"
       fill="black"
       text-rendering="geometricPrecision"
       font-family="sans-serif"
       stroke-linejoin="round"
       stroke="black"
       stroke-opacity="1"
       id="g392">
      <line
         y2="120"
         fill="none"
         x1="199"
         clip-path="url(#clipPath30)"
         x2="50"
         y1="120"
         id="line394" />
      <line
         y2="50"
         fill="none"
         x1="50"
         clip-path="url(#clipPath30)"
         x2="50"
         y1="120"
         id="line396" />
      <polygon
         fill="white"
         clip-path="url(#clipPath30)"
         points=" 199 120 187 114 187 126"
         stroke="none"
         id="polygon398" />
      <polygon
         fill="none"
         points=" 199 120 187 114 187 126"
         clip-path="url(#clipPath30)"
         id="polygon400" />
    </g>
    <g
       font-size="11"
       stroke-linecap="butt"
       transform="translate(110,430)"
       fill-opacity="1"
       fill="black"
       text-rendering="geometricPrecision"
       font-family="sans-serif"
       stroke-linejoin="round"
       stroke-dasharray="4"
       stroke="black"
       stroke-opacity="1"
       id="g402">
      <line
         y2="50"
         fill="none"
         x1="50"
         clip-path="url(#clipPath31)"
         x2="50"
         y1="109"
         id="line404" />
      <line
         y2="50"
         fill="none"
         x1="50"
         clip-path="url(#clipPath31)"
         x2="100"
         y1="50"
         id="line406" />
    </g>
    <g
       font-size="11"
       stroke-linecap="butt"
       transform="translate(10,450)"
       fill-opacity="1"
       fill="black"
       text-rendering="geometricPrecision"
       font-family="sans-serif"
       stroke-linejoin="round"
       stroke-dasharray="4"
       stroke="black"
       stroke-opacity="1"
       id="g408">
      <line
         y2="50"
         fill="none"
         x1="50"
         clip-path="url(#clipPath32)"
         x2="50"
         y1="139"
         id="line410" />
      <line
         y2="50"
         fill="none"
         x1="50"
         clip-path="url(#clipPath32)"
         x2="80"
         y1="50"
         id="line412" />
    </g>
    <g
       font-size="11"
       transform="translate(100,500)"
       fill-opacity="1"
       fill="black"
       text-rendering="geometricPrecision"
       font-family="sans-serif"
       stroke="black"
       stroke-opacity="1"
       id="g414">
      <text
         x="9"
         xml:space="preserve"
         y="12"
         clip-path="url(#clipPath33)"
         stroke="none"
         id="text416">2.</text>
    </g>
    <g
       font-size="11"
       transform="translate(184,290)"
       fill-opacity="1"
       fill="black"
       text-rendering="geometricPrecision"
       font-family="sans-serif"
       stroke="black"
       stroke-opacity="1"
       id="g418">
      <text
         x="9"
         xml:space="preserve"
         y="12"
         clip-path="url(#clipPath34)"
         stroke="none"
         id="text420">1.</text>
    </g>
    <g
       font-size="11"
       transform="translate(205,392)"
       fill-opacity="1"
       fill="black"
       text-rendering="geometricPrecision"
       font-family="sans-serif"
       stroke="black"
       stroke-opacity="1"
       id="g422">
      <text
         x="9"
         xml:space="preserve"
         y="12"
         clip-path="url(#clipPath33)"
         stroke="none"
         id="text424">3.</text>
    </g>
    <g
       font-size="11"
       transform="translate(89,366)"
       fill-opacity="1"
       fill="black"
       text-rendering="geometricPrecision"
       font-family="sans-serif"
       stroke="black"
       stroke-opacity="1"
       id="g426">
      <text
         x="9"
         xml:space="preserve"
         y="12"
         clip-path="url(#clipPath33)"
         stroke="none"
         id="text428">4.</text>
    </g>
    <text
       x="5.9560547"
       xml:space="preserve"
       y="11.895508"
       id="text590"
       style="font-size:10px;fill:#787878;fill-opacity:1;stroke:none"
       inkscape:export-xdpi="120"
       inkscape:export-ydpi="120">Visual Paradigm for UML Community Edition [not for commercial use] </text>
  </g>
</svg>
